<?xml version="1.0" encoding="iso-8859-1"?>
<!-- Generator: Adobe Illustrator 19.0.0, SVG Export Plug-In . SVG Version: 6.00 Build 0)  -->
<svg version="1.1" id="Capa_1" xmlns="http://www.w3.org/2000/svg" xmlns:xlink="http://www.w3.org/1999/xlink" x="0px" y="0px"
	 viewBox="0 0 512 512" style="enable-background:new 0 0 512 512;" xml:space="preserve">
<path style="fill:#19CFFC;" d="M467,0H45C20.099,0,0,20.099,0,45v422c0,24.901,20.099,45,45,45h422c24.901,0,45-20.099,45-45V45
	C512,20.099,491.901,0,467,0z"/>
<path style="fill:#1EA1E3;" d="M512,45v422c0,24.901-20.099,45-45,45H256V0h211C491.901,0,512,20.099,512,45z"/>
<path style="fill:#053791;" d="M467,30H45c-8.401,0-15,6.599-15,15v422c0,8.401,6.599,15,15,15h422c8.401,0,15-6.599,15-15V45
	C482,36.599,475.401,30,467,30z"/>
<path style="fill:#1B2868;" d="M482,45v422c0,8.401-6.599,15-15,15H256V30h211C475.401,30,482,36.599,482,45z"/>
<path style="fill:#E4E4E4;" d="M256,179.2c-9.6,5.7-19.799,11.699-29.7,17.999c0.601-0.3,1.199-0.601,1.8-0.601
	c10.199-2.999,19.499-5.4,27.9-7.5c85.201-23.399,96-20.099,102.001-6.299c7.798,17.999-10.801,29.099-66,62.999
	c-11.4,6.901-24,14.7-36,22.2c-20.4,13.2-38.699,26.1-47.701,35.7c-5.7,6-15,6.301-21.299,0.901c-6-5.7-6.301-15.3-0.901-21.301
	c13.801-14.7,41.1-32.699,69.901-50.7c6.899-4.2,13.5-8.399,20.4-12.599c5.099-2.999,10.8-6.301,16.199-9.6
	c-9.899,2.401-21.899,5.4-36.599,9.3c-6,1.8-12.599,3.6-19.501,5.7c-54,15.3-73.2,17.701-79.799,1.8c-8.101-18.3,9-29.399,91.5-78.3
	c2.401-1.5,5.099-3.001,7.8-4.801c28.2-16.5,66.599-39.598,87.001-55.199c-8.701,1.199-21,2.999-39.001,6.899
	c-16.199,3.3-32.399,7.5-47.999,12.301c-61.5,17.699-113.101,41.1-113.699,41.4c-7.5,3.6-16.501,0.298-19.801-7.202
	c-3.6-7.5-0.3-16.5,7.2-19.799C132.7,121,189.101,95.499,256,76.599c13.801-3.6,27.9-7.2,42.001-10.199
	c59.099-12.599,80.4-11.1,86.999,6c8.401,21.599-16.8,40.199-121.5,102.299C261.099,176.199,258.701,177.7,256,179.2z"/>
<path style="fill:#19CFFC;" d="M323.8,303.1c-9.6-7.5-21.899-10.801-33.9-9.3c-12.9,1.5-24.9,8.7-32.1,19.499L256,316l-11.1,15.599
	c-5.4,7.8-16.5,9.6-24,3.001c-5.7-4.801-13.5-4.801-19.2-0.3c-5.7,4.2-7.2,12.001-4.2,18.3l45,90.3c0.3,0,0.3,0,0.3,0v0.3
	c2.999,5.4,8.101,7.8,13.2,7.8c6,0,12.001-3.3,14.099-9.901C273.701,434.2,326.201,325,327.7,321.7
	C332.199,308.2,329.5,306.099,323.8,303.1z"/>
<path style="fill:#1EA1E3;" d="M327.7,321.7c-1.5,3.3-54,112.5-57.601,119.399C268.001,447.7,262,451,256,451V316l1.8-2.701
	C265,302.5,277,295.3,289.9,293.8c12.001-1.501,24.3,1.8,33.9,9.3C329.5,306.099,332.199,308.2,327.7,321.7z"/>
<g>
	<path style="fill:#BEC3D2;" d="M292,245.799c-11.4,6.901-24,14.7-36,22.2v-35.4c6.899-4.2,13.5-8.399,20.4-12.599
		c5.099-2.999,10.8-6.301,16.199-9.6c-9.899,2.401-21.899,5.4-36.599,9.3v-30.601C341.201,165.7,352,169,358.001,182.8
		C365.799,200.799,347.199,211.899,292,245.799z"/>
	<path style="fill:#BEC3D2;" d="M263.5,174.699c-2.401,1.5-4.799,3.001-7.5,4.501v-35.101c28.2-16.5,66.599-39.598,87.001-55.199
		c-8.701,1.199-21,2.999-39.001,6.899c-16.199,3.3-32.399,7.5-47.999,12.301V76.599c13.801-3.6,27.9-7.2,42.001-10.199
		c59.099-12.599,80.4-11.1,86.999,6C393.401,93.999,368.2,112.599,263.5,174.699z"/>
</g>
<g>
</g>
<g>
</g>
<g>
</g>
<g>
</g>
<g>
</g>
<g>
</g>
<g>
</g>
<g>
</g>
<g>
</g>
<g>
</g>
<g>
</g>
<g>
</g>
<g>
</g>
<g>
</g>
<g>
</g>
</svg>
