<?xml version="1.0" encoding="iso-8859-1"?>
<!-- Generator: Adobe Illustrator 19.0.0, SVG Export Plug-In . SVG Version: 6.00 Build 0)  -->
<svg version="1.1" id="Capa_1" xmlns="http://www.w3.org/2000/svg" xmlns:xlink="http://www.w3.org/1999/xlink" x="0px" y="0px"
	 viewBox="0 0 512 512" style="enable-background:new 0 0 512 512;" xml:space="preserve">
<path style="fill:#A10000;" d="M467,0H45C20.099,0,0,20.099,0,45v422c0,24.901,20.099,45,45,45h422c24.901,0,45-20.099,45-45V45
	C512,20.099,491.901,0,467,0z"/>
<path style="fill:#82090B;" d="M512,45v422c0,24.901-20.099,45-45,45H256V0h211C491.901,0,512,20.099,512,45z"/>
<path style="fill:#D1093A;" d="M467,30H45c-8.401,0-15,6.599-15,15v422c0,8.401,6.599,15,15,15h422c8.401,0,15-6.599,15-15V45
	C482,36.599,475.401,30,467,30z"/>
<path style="fill:#BD002F;" d="M482,45v422c0,8.401-6.599,15-15,15H256V30h211C475.401,30,482,36.599,482,45z"/>
<path style="fill:#E4E4E4;" d="M447.4,223.9c-11.4-48.3-49.501-87.001-97.5-98.699c-32.701-8.101-65.7-3.9-93.9,10.199
	c-12.9,6.301-24.6,14.7-35.099,25.201c-12.601-6.301-26.1-9.6-39.901-9.6c-36.899,0-71.1,16.5-93.9,45.3
	C64.3,225.1,55.901,262.6,64.3,299.201C76,351.099,122.5,391,181,391c23.401,0,45.901-7.2,65.4-19.801
	c1.5,0.901,3.001,2.1,4.501,3.001c1.5,0.899,3.3,1.8,5.099,2.399c18.6,9.6,39,14.401,60,14.401C402.1,391,467.5,311.199,447.4,223.9
	z"/>
<path style="fill:#BEC3D2;" d="M316,391c-21,0-41.4-4.801-60-14.401v-241.2c28.2-14.099,61.199-18.3,93.9-10.199
	c47.999,11.699,86.1,50.4,97.5,98.699C467.5,311.199,402.1,391,316,391z"/>
<path style="fill:#D1093A;" d="M418.001,230.499c-8.701-37.2-38.101-67.2-75.3-76.199c-30.601-7.5-62.1-1.8-86.7,15.601
	c-3.6,2.399-6.899,5.099-10.201,8.099c3.301,3.001,6.601,5.7,9.6,9.3l0.601,0.601l71.7,88.801c5.099,6.299,4.2,15.899-2.401,21
	c-6.301,5.099-15.601,4.199-21-2.401L256,235.6l-23.699-29.101C218.8,190.6,200.2,181,181.3,181c-58.2,0-101.1,53.099-87.9,111.599
	c7.5,31.8,33.9,58.5,65.7,66c22.5,5.099,45,1.8,64.499-8.699l-69.3-84.3c-5.099-6.601-4.2-15.901,2.1-21.301
	c6.601-5.099,15.901-4.2,21.301,2.1l70.8,86.4c2.701,2.999,5.099,5.7,7.5,8.099c2.999,3.001,6.301,5.402,9.3,7.202
	C344.801,391.599,438.999,321.099,418.001,230.499z"/>
<path style="fill:#BD002F;" d="M265.3,348.1c-2.999-1.8-6.301-4.2-9.3-7.202V235.6l48.3,59.7c5.4,6.599,14.7,7.5,21,2.401
	c6.601-5.101,7.5-14.702,2.401-21L256,187.899V169.9c24.6-17.401,56.1-23.101,86.7-15.601c37.2,9,66.599,39,75.3,76.199
	C438.999,321.099,344.801,391.599,265.3,348.1z"/>
<g>
</g>
<g>
</g>
<g>
</g>
<g>
</g>
<g>
</g>
<g>
</g>
<g>
</g>
<g>
</g>
<g>
</g>
<g>
</g>
<g>
</g>
<g>
</g>
<g>
</g>
<g>
</g>
<g>
</g>
</svg>
