<?xml version="1.0" encoding="iso-8859-1"?>
<!-- Generator: Adobe Illustrator 19.0.0, SVG Export Plug-In . SVG Version: 6.00 Build 0)  -->
<svg version="1.1" id="Capa_1" xmlns="http://www.w3.org/2000/svg" xmlns:xlink="http://www.w3.org/1999/xlink" x="0px" y="0px"
	 viewBox="0 0 512 512" style="enable-background:new 0 0 512 512;" xml:space="preserve">
<path style="fill:#DE78F0;" d="M467,0H45C20.099,0,0,20.099,0,45v422c0,24.901,20.099,45,45,45h422c24.901,0,45-20.099,45-45V45
	C512,20.099,491.901,0,467,0z"/>
<path style="fill:#BF4CD9;" d="M512,45v422c0,24.901-20.099,45-45,45H256V0h211C491.901,0,512,20.099,512,45z"/>
<path style="fill:#5A2263;" d="M467,30H45c-8.401,0-15,6.599-15,15v422c0,8.401,6.599,15,15,15h422c8.401,0,15-6.599,15-15V45
	C482,36.599,475.401,30,467,30z"/>
<path style="fill:#2C0652;" d="M482,45v422c0,8.401-6.599,15-15,15H256V30h211C475.401,30,482,36.599,482,45z"/>
<g>
	<path style="fill:#DE78F0;" d="M181,391c-8.291,0-15-6.709-15-15V136c0-8.291,6.709-15,15-15s15,6.709,15,15v240
		C196,384.291,189.291,391,181,391z"/>
	<path style="fill:#DE78F0;" d="M354.101,347.8c5.7,6,5.7,15.3,0,21.299C340,383.2,321.099,391,301,391c-16.8,0-32.701-5.7-45-15
		c-18.3-13.801-30-35.4-30-60v-60c0-24.6,11.7-46.201,30-60c12.299-9.3,28.2-15,45-15c20.099,0,39,7.8,53.101,21.899
		c5.7,6,5.7,15.3,0,21.301c-6,5.7-15.3,5.7-21.301,0c-8.399-8.401-19.799-13.2-31.8-13.2c-24.901,0-45,20.099-45,45v60
		c0,24.899,20.099,45,45,45c12.001,0,23.401-4.801,31.8-13.2C338.8,342.1,348.1,342.1,354.101,347.8z"/>
</g>
<g>
	<path style="fill:#BF4CD9;" d="M354.101,347.8c5.7,6,5.7,15.3,0,21.299C340,383.2,321.099,391,301,391c-16.8,0-32.701-5.7-45-15
		v-60c0,24.899,20.099,45,45,45c12.001,0,23.401-4.801,31.8-13.2C338.8,342.1,348.1,342.1,354.101,347.8z"/>
	<path style="fill:#BF4CD9;" d="M256,256v-60c12.299-9.3,28.2-15,45-15c20.099,0,39,7.8,53.101,21.899c5.7,6,5.7,15.3,0,21.301
		c-6,5.7-15.3,5.7-21.301,0c-8.399-8.401-19.799-13.2-31.8-13.2C276.099,211,256,231.099,256,256z"/>
</g>
<g>
</g>
<g>
</g>
<g>
</g>
<g>
</g>
<g>
</g>
<g>
</g>
<g>
</g>
<g>
</g>
<g>
</g>
<g>
</g>
<g>
</g>
<g>
</g>
<g>
</g>
<g>
</g>
<g>
</g>
</svg>
