<?xml version="1.0" encoding="iso-8859-1"?>
<!-- Generator: Adobe Illustrator 19.0.0, SVG Export Plug-In . SVG Version: 6.00 Build 0)  -->
<svg version="1.1" id="Capa_1" xmlns="http://www.w3.org/2000/svg" xmlns:xlink="http://www.w3.org/1999/xlink" x="0px" y="0px"
	 viewBox="0 0 512 512" style="enable-background:new 0 0 512 512;" xml:space="preserve">
<path style="fill:#E4E4E4;" d="M467,0H45C20.099,0,0,20.099,0,45v422c0,24.901,20.099,45,45,45h422c24.901,0,45-20.099,45-45V45
	C512,20.099,491.901,0,467,0z"/>
<path style="fill:#BEC3D2;" d="M512,45v422c0,24.901-20.099,45-45,45H256V0h211C491.901,0,512,20.099,512,45z"/>
<path style="fill:#414952;" d="M467,30H45c-8.401,0-15,6.599-15,15v422c0,8.401,6.599,15,15,15h422c8.401,0,15-6.599,15-15V45
	C482,36.599,475.401,30,467,30z"/>
<path style="fill:#333940;" d="M482,45v422c0,8.401-6.599,15-15,15H256V30h211C475.401,30,482,36.599,482,45z"/>
<path style="fill:#BEC3D2;" d="M346,211c-10.384,0-20.457,1.849-30,5.229V136c0-8.291-6.709-15-15-15s-15,6.709-15,15v240
	c0,8.291,6.709,15,15,15c5.061,0,9.313-2.662,12.028-6.497C323.451,388.625,334.514,391,346,391c49.629,0,90-40.371,90-90
	S395.629,211,346,211z M346,361c-10.789,0-20.848-3.464-30-8.846V249.846c9.152-5.381,19.211-8.846,30-8.846
	c33.091,0,60,26.909,60,60S379.091,361,346,361z"/>
<path style="fill:#E4E4E4;" d="M241,121H91c-8.291,0-15,6.709-15,15c0,42.744,0,240,0,240c0,8.291,6.709,15,15,15s15-6.709,15-15
	V271h105c8.291,0,15-6.709,15-15s-6.709-15-15-15H106c0-10.529,0-94.329,0-90h135c8.291,0,15-6.709,15-15S249.291,121,241,121z"/>
<g>
</g>
<g>
</g>
<g>
</g>
<g>
</g>
<g>
</g>
<g>
</g>
<g>
</g>
<g>
</g>
<g>
</g>
<g>
</g>
<g>
</g>
<g>
</g>
<g>
</g>
<g>
</g>
<g>
</g>
</svg>
