<?xml version="1.0" encoding="iso-8859-1"?>
<!-- Generator: Adobe Illustrator 19.0.0, SVG Export Plug-In . SVG Version: 6.00 Build 0)  -->
<svg version="1.1" id="Capa_1" xmlns="http://www.w3.org/2000/svg" xmlns:xlink="http://www.w3.org/1999/xlink" x="0px" y="0px"
	 viewBox="0 0 512 512" style="enable-background:new 0 0 512 512;" xml:space="preserve">
<path style="fill:#FFDA45;" d="M467,0H45C20.099,0,0,20.099,0,45v422c0,24.901,20.099,45,45,45h422c24.901,0,45-20.099,45-45V45
	C512,20.099,491.901,0,467,0z"/>
<path style="fill:#FFBC36;" d="M512,45v422c0,24.901-20.099,45-45,45H256V0h211C491.901,0,512,20.099,512,45z"/>
<path style="fill:#414952;" d="M467,30H45c-8.401,0-15,6.599-15,15v422c0,8.401,6.599,15,15,15h422c8.401,0,15-6.599,15-15V45
	C482,36.599,475.401,30,467,30z"/>
<path style="fill:#333940;" d="M482,45v422c0,8.401-6.599,15-15,15H256V30h211C475.401,30,482,36.599,482,45z"/>
<path style="fill:#FFDA45;" d="M166,361c-41.353,0-75-33.647-75-75c0-8.291,6.709-15,15-15s15,6.709,15,15c0,24.814,20.186,45,45,45
	s45-20.186,45-45s-20.186-45-45-45c-41.353,0-75-33.647-75-75s33.647-75,75-75s75,33.647,75,75c0,8.291-6.709,15-15,15
	s-15-6.709-15-15c0-24.814-20.186-45-45-45s-45,20.186-45,45s20.186,45,45,45c41.353,0,75,33.647,75,75S207.353,361,166,361z"/>
<path style="fill:#FFBC36;" d="M331,181c-11.486,0-22.549,2.375-32.972,6.497C295.313,183.662,291.061,181,286,181
	c-8.291,0-15,6.709-15,15v241c0,8.291,6.709,15,15,15s15-6.709,15-15v-81.229c9.543,3.38,19.616,5.229,30,5.229
	c49.629,0,90-40.371,90-90S380.629,181,331,181z M331,331c-10.789,0-20.848-3.464-30-8.846V219.846
	c9.152-5.381,19.211-8.846,30-8.846c33.091,0,60,26.909,60,60S364.091,331,331,331z"/>
<g>
</g>
<g>
</g>
<g>
</g>
<g>
</g>
<g>
</g>
<g>
</g>
<g>
</g>
<g>
</g>
<g>
</g>
<g>
</g>
<g>
</g>
<g>
</g>
<g>
</g>
<g>
</g>
<g>
</g>
</svg>
