<?xml version="1.0" encoding="iso-8859-1"?>
<!-- Generator: Adobe Illustrator 19.0.0, SVG Export Plug-In . SVG Version: 6.00 Build 0)  -->
<svg version="1.1" id="Capa_1" xmlns="http://www.w3.org/2000/svg" xmlns:xlink="http://www.w3.org/1999/xlink" x="0px" y="0px"
	 viewBox="0 0 512 512" style="enable-background:new 0 0 512 512;" xml:space="preserve">
<path style="fill:#A10000;" d="M467,0H45C20.099,0,0,20.099,0,45v422c0,24.901,20.099,45,45,45h422c24.901,0,45-20.099,45-45V45
	C512,20.099,491.901,0,467,0z"/>
<path style="fill:#82090B;" d="M512,45v422c0,24.901-20.099,45-45,45H256V0h211C491.901,0,512,20.099,512,45z"/>
<path style="fill:#D1093A;" d="M467,30H45c-8.401,0-15,6.599-15,15v422c0,8.401,6.599,15,15,15h422c8.401,0,15-6.599,15-15V45
	C482,36.599,475.401,30,467,30z"/>
<path style="fill:#BD002F;" d="M482,45v422c0,8.401-6.599,15-15,15H256V30h211C475.401,30,482,36.599,482,45z"/>
<path style="fill:#E4E4E4;" d="M422.8,331c-14.399-35.4-69.901-62.701-32.701-166.201c13.2-35.999-0.899-76.5-32.399-93.9
	C320.5,49.9,275.5,64,256,98.801c-2.401,3.6-4.2,7.5-5.7,11.699c-3.6,3-15.3,89.7-128.101,108.3c-30,2.399-68.099,45-59.7,87.9
	c8.701,44.099,53.401,70.199,95.4,57.299c33.301-10.199,68.701-5.4,98.101,11.4c17.1,9.3,31.8,22.8,42.9,39.901
	c25.501,39.3,79.801,45.599,114.3,13.799C439.3,404.799,443.5,362.5,422.8,331z M271,308.5c-5.4,0-10.201-0.901-15-2.701
	c-17.401-6-30-22.8-30-42.299c0-19.501,12.599-36.301,30-42.301c4.799-1.8,9.6-2.699,15-2.699c24.901,0,45,20.099,45,45
	C316,288.399,295.901,308.5,271,308.5z"/>
<path style="fill:#BEC3D2;" d="M413.2,429.099c-34.499,31.8-88.799,25.501-114.3-13.799c-11.1-17.1-25.8-30.601-42.9-39.901v-69.6
	c4.799,1.8,9.6,2.701,15,2.701c24.901,0,45-20.101,45-45c0-24.901-20.099-45-45-45c-5.4,0-10.201,0.899-15,2.699V98.8
	c19.501-34.801,64.501-48.9,101.7-27.902c31.5,17.401,45.599,57.902,32.399,93.9C352.899,268.299,408.401,295.6,422.8,331
	C443.5,362.5,439.3,404.799,413.2,429.099z"/>
<g>
</g>
<g>
</g>
<g>
</g>
<g>
</g>
<g>
</g>
<g>
</g>
<g>
</g>
<g>
</g>
<g>
</g>
<g>
</g>
<g>
</g>
<g>
</g>
<g>
</g>
<g>
</g>
<g>
</g>
</svg>
