<?xml version="1.0" encoding="iso-8859-1"?>
<!-- Generator: Adobe Illustrator 19.0.0, SVG Export Plug-In . SVG Version: 6.00 Build 0)  -->
<svg version="1.1" id="Capa_1" xmlns="http://www.w3.org/2000/svg" xmlns:xlink="http://www.w3.org/1999/xlink" x="0px" y="0px"
	 viewBox="0 0 512 512" style="enable-background:new 0 0 512 512;" xml:space="preserve">
<path style="fill:#DE78F0;" d="M467,0H45C20.099,0,0,20.099,0,45v422c0,24.901,20.099,45,45,45h422c24.901,0,45-20.099,45-45V45
	C512,20.099,491.901,0,467,0z"/>
<path style="fill:#BF4CD9;" d="M512,45v422c0,24.901-20.099,45-45,45H256V0h211C491.901,0,512,20.099,512,45z"/>
<path style="fill:#5A2263;" d="M467,30H45c-8.401,0-15,6.599-15,15v422c0,8.401,6.599,15,15,15h422c8.401,0,15-6.599,15-15V45
	C482,36.599,475.401,30,467,30z"/>
<path style="fill:#2C0652;" d="M482,45v422c0,8.401-6.599,15-15,15H256V30h211C475.401,30,482,36.599,482,45z"/>
<path style="fill:#BF4CD9;" d="M286,361c-2.549,0-5.098-0.645-7.397-1.948C273.9,356.386,271,351.405,271,346V166
	c0-5.405,2.9-10.386,7.603-13.052c4.717-2.666,10.488-2.578,15.117,0.19l150,90c4.512,2.71,7.28,7.588,7.28,12.861
	c0,5.273-2.769,10.151-7.28,12.861l-150,90C291.347,360.282,288.666,361,286,361z M301,192.499v127.002L406.85,256L301,192.499z"/>
<g>
	<path style="fill:#DE78F0;" d="M106,451c-8.291,0-15-6.709-15-15V76c0-8.291,6.709-15,15-15s15,6.709,15,15v360
		C121,444.291,114.291,451,106,451z"/>
	<path style="fill:#DE78F0;" d="M166,421c-8.291,0-15-6.709-15-15V106c0-8.291,6.709-15,15-15s15,6.709,15,15v300
		C181,414.291,174.291,421,166,421z"/>
	<path style="fill:#DE78F0;" d="M226,391c-8.291,0-15-6.709-15-15V136c0-8.291,6.709-15,15-15s15,6.709,15,15v240
		C241,384.291,234.291,391,226,391z"/>
</g>
<g>
</g>
<g>
</g>
<g>
</g>
<g>
</g>
<g>
</g>
<g>
</g>
<g>
</g>
<g>
</g>
<g>
</g>
<g>
</g>
<g>
</g>
<g>
</g>
<g>
</g>
<g>
</g>
<g>
</g>
</svg>
