<?xml version="1.0" encoding="iso-8859-1"?>
<!-- Generator: Adobe Illustrator 19.0.0, SVG Export Plug-In . SVG Version: 6.00 Build 0)  -->
<svg version="1.1" id="Capa_1" xmlns="http://www.w3.org/2000/svg" xmlns:xlink="http://www.w3.org/1999/xlink" x="0px" y="0px"
	 viewBox="0 0 512 512" style="enable-background:new 0 0 512 512;" xml:space="preserve">
<path style="fill:#BDF052;" d="M467,0H45C20.099,0,0,20.099,0,45v422c0,24.901,20.099,45,45,45h422c24.901,0,45-20.099,45-45V45
	C512,20.099,491.901,0,467,0z"/>
<path style="fill:#A7E340;" d="M512,45v422c0,24.901-20.099,45-45,45H256V0h211C491.901,0,512,20.099,512,45z"/>
<path style="fill:#4B5F1E;" d="M467,30H45c-8.401,0-15,6.599-15,15v422c0,8.401,6.599,15,15,15h422c8.401,0,15-6.599,15-15V45
	C482,36.599,475.401,30,467,30z"/>
<path style="fill:#3A4A17;" d="M482,45v422c0,8.401-6.599,15-15,15H256V30h211C475.401,30,482,36.599,482,45z"/>
<path style="fill:#A7E340;" d="M421,211c-8.291,0-15,6.709-15,15v105c0,16.538-13.462,30-30,30s-30-13.462-30-30V226
	c0-8.291-6.709-15-15-15s-15,6.709-15,15v105c0,33.091,26.909,60,60,60c11.492,0,22.132-3.409,31.263-9.031
	C409.572,387.276,414.839,391,421,391c8.291,0,15-6.709,15-15v-45V226C436,217.709,429.291,211,421,211z"/>
<path style="fill:#BDF052;" d="M286,136v240c0,8.401-6.599,15-15,15s-15-6.599-15-15V181l-62.999,84c-5.7,7.5-18.301,7.5-24.001,0
	l-63-84v195c0,8.401-6.599,15-15,15s-15-6.599-15-15V136c0-6.599,4.2-12.299,10.201-14.099c6.299-2.1,12.9,0,16.8,5.099L181,231.099
	L256,130.9l2.999-3.9c3.9-5.099,10.501-7.2,16.8-5.099C281.8,123.701,286,129.401,286,136z"/>
<path style="fill:#A7E340;" d="M286,136v240c0,8.401-6.599,15-15,15s-15-6.599-15-15V130.901l2.999-3.9
	c3.9-5.099,10.501-7.2,16.8-5.099C281.8,123.701,286,129.401,286,136z"/>
<g>
</g>
<g>
</g>
<g>
</g>
<g>
</g>
<g>
</g>
<g>
</g>
<g>
</g>
<g>
</g>
<g>
</g>
<g>
</g>
<g>
</g>
<g>
</g>
<g>
</g>
<g>
</g>
<g>
</g>
</svg>
