<?xml version="1.0" encoding="iso-8859-1"?>
<!-- Generator: Adobe Illustrator 19.0.0, SVG Export Plug-In . SVG Version: 6.00 Build 0)  -->
<svg version="1.1" id="Capa_1" xmlns="http://www.w3.org/2000/svg" xmlns:xlink="http://www.w3.org/1999/xlink" x="0px" y="0px"
	 viewBox="0 0 512 512" style="enable-background:new 0 0 512 512;" xml:space="preserve">
<path style="fill:#CDE2FF;" d="M467,0H45C20.099,0,0,20.099,0,45v422c0,24.901,20.099,45,45,45h422c24.901,0,45-20.099,45-45V45
	C512,20.099,491.901,0,467,0z"/>
<path style="fill:#9BC5FF;" d="M512,45v422c0,24.901-20.099,45-45,45H256V0h211C491.901,0,512,20.099,512,45z"/>
<path style="fill:#1B2868;" d="M467,30H45c-8.401,0-15,6.599-15,15v422c0,8.401,6.599,15,15,15h422c8.401,0,15-6.599,15-15V45
	C482,36.599,475.401,30,467,30z"/>
<path style="fill:#12254C;" d="M482,45v422c0,8.401-6.599,15-15,15H256V30h211C475.401,30,482,36.599,482,45z"/>
<path style="fill:#CDE2FF;" d="M271,376c0,8.401-6.599,15-15,15H136c-8.401,0-15-6.599-15-15V136c0-8.401,6.599-15,15-15
	s15,6.599,15,15v225h105C264.401,361,271,367.599,271,376z"/>
<g>
	<path style="fill:#9BC5FF;" d="M376,211c-16.948,0-32.426,5.865-45,15.383V226c0-8.291-6.709-15-15-15s-15,6.709-15,15v150
		c0,8.291,6.709,15,15,15s15-6.709,15-15v-90c0-24.814,20.186-45,45-45c8.291,0,15-6.709,15-15S384.291,211,376,211z"/>
	<path style="fill:#9BC5FF;" d="M271,376c0,8.401-6.599,15-15,15v-30C264.401,361,271,367.599,271,376z"/>
</g>
<g>
</g>
<g>
</g>
<g>
</g>
<g>
</g>
<g>
</g>
<g>
</g>
<g>
</g>
<g>
</g>
<g>
</g>
<g>
</g>
<g>
</g>
<g>
</g>
<g>
</g>
<g>
</g>
<g>
</g>
</svg>
