<?xml version="1.0" encoding="iso-8859-1"?>
<!-- Generator: Adobe Illustrator 19.0.0, SVG Export Plug-In . SVG Version: 6.00 Build 0)  -->
<svg version="1.1" id="Capa_1" xmlns="http://www.w3.org/2000/svg" xmlns:xlink="http://www.w3.org/1999/xlink" x="0px" y="0px"
	 viewBox="0 0 512 512" style="enable-background:new 0 0 512 512;" xml:space="preserve">
<path style="fill:#A10000;" d="M467,0H45C20.099,0,0,20.099,0,45v422c0,24.901,20.099,45,45,45h422c24.901,0,45-20.099,45-45V45
	C512,20.099,491.901,0,467,0z"/>
<path style="fill:#82090B;" d="M512,45v422c0,24.901-20.099,45-45,45H256V0h211C491.901,0,512,20.099,512,45z"/>
<path style="fill:#D1093A;" d="M467,30H45c-8.401,0-15,6.599-15,15v422c0,8.401,6.599,15,15,15h422c8.401,0,15-6.599,15-15V45
	C482,36.599,475.401,30,467,30z"/>
<path style="fill:#BD002F;" d="M482,45v422c0,8.401-6.599,15-15,15H256V30h211C475.401,30,482,36.599,482,45z"/>
<path style="fill:#E4E4E4;" d="M452.199,324.399c-12.9-26.1-59.399-34.199-95.7-36.299c-10.499-0.601-21.899-0.601-33.6-0.3
	C301.3,265.3,275.5,236.8,256,208.9c-0.601-0.901-1.5-2.1-2.1-3.001c0.601-2.098,1.5-4.499,2.1-6.599
	c16.8-52.2,24.901-98.699,13.2-120c-4.2-7.2-8.699-12.6-13.2-16.5c-11.7-9.901-24.6-10.201-34.501-6
	c-23.699,9.9-39.598,51.3-22.199,107.999c4.2,14.101,12.001,29.401,21.601,45C209.2,242.8,194.2,278.8,177.1,312.7
	c-45.601,15.599-85.499,39-106.5,71.398C52.599,412,68.2,452.8,97.301,452.8c13.799,0,36.299-8.701,73.499-67.5
	c8.401-13.5,17.701-29.7,27.001-48.001c18.6-5.7,38.101-10.199,58.2-13.2c18.3-3.3,36.599-5.099,54.6-5.999
	c21,20.999,36.599,34.799,38.399,36.599c3.6,3.001,35.101,31.5,66.301,27.599C442.599,378.999,463.9,348.1,452.199,324.399z
	 M146.201,367.599C112.599,421,97.599,422.8,97.599,422.8c-0.298,0-1.5-0.901-2.999-4.2c-1.199-2.401-1.8-5.099-1.8-7.8
	c0-3.6,1.199-7.2,2.999-10.199C107.8,382,128.5,366.4,154.6,354.099C151.901,358.599,149.2,363.1,146.201,367.599z M233.5,84.399
	c0,0,0-0.3,0.3-0.3c1.8,0,5.4,3.301,9,9.901c5.7,9.901,1.5,39-9.3,76.8c-2.401-5.099-4.2-9.901-5.7-14.7
	C214.6,112.899,226.601,87.4,233.5,84.399z M256,293.8c-13.801,2.098-27.299,4.799-40.8,8.099c9.3-20.099,18.3-41.1,26.4-62.1
	c4.799,6,9.6,12.001,14.399,18.001c9.3,11.4,18.9,22.2,28.2,32.401C274.9,291.099,265.3,292.299,256,293.8z M412,352.599
	c-14.7,1.5-36.301-14.399-42.9-20.4c-0.3,0-6-5.4-15.3-14.099h0.899c45.901,2.699,67.5,13.2,70.501,19.799
	C426.7,340.6,421,351.4,412,352.599z"/>
<g>
	<path style="fill:#BEC3D2;" d="M256,199.3V62.8c4.501,3.9,9,9.3,13.2,16.5C280.901,100.6,272.8,147.1,256,199.3z"/>
	<path style="fill:#BEC3D2;" d="M452.199,324.399c-12.9-26.1-59.399-34.199-95.7-36.299c-10.499-0.601-21.899-0.601-33.6-0.3
		C301.3,265.3,275.5,236.8,256,208.9v48.9c9.3,11.4,18.9,22.2,28.2,32.401c-9.3,0.899-18.9,2.098-28.2,3.6v30.298
		c18.3-3.3,36.599-5.099,54.6-5.999c21,20.999,36.599,34.799,38.399,36.599c3.6,3.001,35.101,31.5,66.301,27.599
		C442.599,378.999,463.9,348.1,452.199,324.399z M412,352.599c-14.7,1.5-36.301-14.399-42.9-20.4c-0.3,0-6-5.4-15.3-14.099h0.899
		c45.901,2.699,67.5,13.2,70.501,19.799C426.7,340.6,421,351.4,412,352.599z"/>
</g>
<g>
</g>
<g>
</g>
<g>
</g>
<g>
</g>
<g>
</g>
<g>
</g>
<g>
</g>
<g>
</g>
<g>
</g>
<g>
</g>
<g>
</g>
<g>
</g>
<g>
</g>
<g>
</g>
<g>
</g>
</svg>
