<?xml version="1.0" encoding="iso-8859-1"?>
<!-- Generator: Adobe Illustrator 19.0.0, SVG Export Plug-In . SVG Version: 6.00 Build 0)  -->
<svg version="1.1" id="Capa_1" xmlns="http://www.w3.org/2000/svg" xmlns:xlink="http://www.w3.org/1999/xlink" x="0px" y="0px"
	 viewBox="0 0 512 512" style="enable-background:new 0 0 512 512;" xml:space="preserve">
<path style="fill:#FFDA45;" d="M467,0H45C20.099,0,0,20.099,0,45v422c0,24.901,20.099,45,45,45h422c24.901,0,45-20.099,45-45V45
	C512,20.099,491.901,0,467,0z"/>
<path style="fill:#FFBC36;" d="M512,45v422c0,24.901-20.099,45-45,45H256V0h211C491.901,0,512,20.099,512,45z"/>
<path style="fill:#414952;" d="M467,30H45c-8.401,0-15,6.599-15,15v422c0,8.401,6.599,15,15,15h422c8.401,0,15-6.599,15-15V45
	C482,36.599,475.401,30,467,30z"/>
<path style="fill:#333940;" d="M482,45v422c0,8.401-6.599,15-15,15H256V30h211C475.401,30,482,36.599,482,45z"/>
<path style="fill:#FFDA45;" d="M166,361c-41.353,0-75-33.647-75-75c0-8.291,6.709-15,15-15s15,6.709,15,15c0,24.814,20.186,45,45,45
	s45-20.186,45-45s-20.186-45-45-45c-41.353,0-75-33.647-75-75s33.647-75,75-75s75,33.647,75,75c0,8.291-6.709,15-15,15
	s-15-6.709-15-15c0-24.814-20.186-45-45-45s-45,20.186-45,45s20.186,45,45,45c41.353,0,75,33.647,75,75S207.353,361,166,361z"/>
<path style="fill:#FFBC36;" d="M411.273,211.952c-7.808-2.886-16.406,0.996-19.321,8.774L346,343.268l-45.952-122.542
	c-2.9-7.749-11.558-11.646-19.321-8.774c-7.749,2.915-11.675,11.558-8.774,19.321l58.024,154.724l-17.492,47.648
	C308.368,444.617,297.733,452,286,452c-8.291,0-15,6.709-15,15s6.709,15,15,15c24.17,0,46.113-15.205,54.58-37.822l79.468-212.904
	C422.948,223.51,419.022,214.867,411.273,211.952z"/>
<g>
</g>
<g>
</g>
<g>
</g>
<g>
</g>
<g>
</g>
<g>
</g>
<g>
</g>
<g>
</g>
<g>
</g>
<g>
</g>
<g>
</g>
<g>
</g>
<g>
</g>
<g>
</g>
<g>
</g>
</svg>
