<?xml version="1.0" encoding="iso-8859-1"?>
<!-- Generator: Adobe Illustrator 19.0.0, SVG Export Plug-In . SVG Version: 6.00 Build 0)  -->
<svg version="1.1" id="Capa_1" xmlns="http://www.w3.org/2000/svg" xmlns:xlink="http://www.w3.org/1999/xlink" x="0px" y="0px"
	 viewBox="0 0 512 512" style="enable-background:new 0 0 512 512;" xml:space="preserve">
<path style="fill:#19CFFC;" d="M467,0H45C20.099,0,0,20.099,0,45v422c0,24.901,20.099,45,45,45h422c24.901,0,45-20.099,45-45V45
	C512,20.099,491.901,0,467,0z"/>
<path style="fill:#1EA1E3;" d="M512,45v422c0,24.901-20.099,45-45,45H256V0h211C491.901,0,512,20.099,512,45z"/>
<path style="fill:#053791;" d="M467,30H45c-8.401,0-15,6.599-15,15v422c0,8.401,6.599,15,15,15h422c8.401,0,15-6.599,15-15V45
	C482,36.599,475.401,30,467,30z"/>
<path style="fill:#1B2868;" d="M482,45v422c0,8.401-6.599,15-15,15H256V30h211C475.401,30,482,36.599,482,45z"/>
<path style="fill:#19CFFC;" d="M256,136c-12.299-9.3-28.2-15-45-15h-90c-8.401,0-15,6.599-15,15v240c0,8.399,6.599,15,15,15
	s15-6.601,15-15V271h75c16.8,0,32.701-5.7,45-15c18.3-13.801,30-35.4,30-60S274.3,149.799,256,136z M211,241h-75v-90h75
	c24.901,0,45,20.099,45,45C256,220.899,235.901,241,211,241z"/>
<g>
	<path style="fill:#1EA1E3;" d="M391,391h-30c-24.814,0-45-20.186-45-45V136c0-8.291,6.709-15,15-15s15,6.709,15,15v210
		c0,8.276,6.724,15,15,15h30c8.291,0,15,6.709,15,15S399.291,391,391,391z"/>
	<path style="fill:#1EA1E3;" d="M286,196c0,24.6-11.7,46.199-30,60V136C274.3,149.799,286,171.4,286,196z"/>
</g>
<g>
</g>
<g>
</g>
<g>
</g>
<g>
</g>
<g>
</g>
<g>
</g>
<g>
</g>
<g>
</g>
<g>
</g>
<g>
</g>
<g>
</g>
<g>
</g>
<g>
</g>
<g>
</g>
<g>
</g>
</svg>
