<?xml version="1.0" encoding="iso-8859-1"?>
<!-- Generator: Adobe Illustrator 19.0.0, SVG Export Plug-In . SVG Version: 6.00 Build 0)  -->
<svg version="1.1" id="Capa_1" xmlns="http://www.w3.org/2000/svg" xmlns:xlink="http://www.w3.org/1999/xlink" x="0px" y="0px"
	 viewBox="0 0 512 512" style="enable-background:new 0 0 512 512;" xml:space="preserve">
<path style="fill:#DE78F0;" d="M467,0H45C20.099,0,0,20.099,0,45v422c0,24.901,20.099,45,45,45h422c24.901,0,45-20.099,45-45V45
	C512,20.099,491.901,0,467,0z"/>
<path style="fill:#BF4CD9;" d="M512,45v422c0,24.901-20.099,45-45,45H256V0h211C491.901,0,512,20.099,512,45z"/>
<path style="fill:#5A2263;" d="M467,30H45c-8.401,0-15,6.599-15,15v422c0,8.401,6.599,15,15,15h422c8.401,0,15-6.599,15-15V45
	C482,36.599,475.401,30,467,30z"/>
<path style="fill:#2C0652;" d="M482,45v422c0,8.401-6.599,15-15,15H256V30h211C475.401,30,482,36.599,482,45z"/>
<path style="fill:#BF4CD9;" d="M361,211c-10.977,0-21.14,3.177-30,8.344V136c0-8.291-6.709-15-15-15s-15,6.709-15,15
	c0,8.3,0,257.028,0,240c0,8.291,6.709,15,15,15s15-6.709,15-15c0-29.086,0-109.455,0-105c0-16.538,13.462-30,30-30s30,13.462,30,30
	v105c0,8.291,6.709,15,15,15s15-6.709,15-15V271C421,237.909,394.091,211,361,211z"/>
<path style="fill:#DE78F0;" d="M271,301c0,18.3-5.7,35.4-15,49.799c-16.199,24-43.801,40.201-75,40.201c-49.501,0-90-40.501-90-90
	v-90c0-49.501,40.499-90,90-90c31.199,0,58.801,16.199,75,40.199C265.3,175.6,271,192.7,271,211c0,8.399-6.599,15-15,15
	s-15-6.601-15-15c0-33.001-27.001-60-60-60s-60,26.999-60,60v90c0,32.999,27.001,60,60,60s60-27.001,60-60c0-8.401,6.599-15,15-15
	S271,292.599,271,301z"/>
<g>
	<path style="fill:#BF4CD9;" d="M271,301c0,18.3-5.7,35.4-15,49.799V286C264.401,286,271,292.599,271,301z"/>
	<path style="fill:#BF4CD9;" d="M256,226v-64.801C265.3,175.6,271,192.7,271,211C271,219.399,264.401,226,256,226z"/>
</g>
<g>
</g>
<g>
</g>
<g>
</g>
<g>
</g>
<g>
</g>
<g>
</g>
<g>
</g>
<g>
</g>
<g>
</g>
<g>
</g>
<g>
</g>
<g>
</g>
<g>
</g>
<g>
</g>
<g>
</g>
</svg>
