<?xml version="1.0" encoding="iso-8859-1"?>
<!-- Generator: Adobe Illustrator 19.0.0, SVG Export Plug-In . SVG Version: 6.00 Build 0)  -->
<svg version="1.1" id="Capa_1" xmlns="http://www.w3.org/2000/svg" xmlns:xlink="http://www.w3.org/1999/xlink" x="0px" y="0px"
	 viewBox="0 0 512 512" style="enable-background:new 0 0 512 512;" xml:space="preserve">
<path style="fill:#FFDA45;" d="M467,0H45C20.099,0,0,20.099,0,45v422c0,24.901,20.099,45,45,45h422c24.901,0,45-20.099,45-45V45
	C512,20.099,491.901,0,467,0z"/>
<path style="fill:#FFBC36;" d="M512,45v422c0,24.901-20.099,45-45,45H256V0h211C491.901,0,512,20.099,512,45z"/>
<path style="fill:#414952;" d="M467,30H45c-8.401,0-15,6.599-15,15v422c0,8.401,6.599,15,15,15h422c8.401,0,15-6.599,15-15V45
	C482,36.599,475.401,30,467,30z"/>
<path style="fill:#333940;" d="M482,45v422c0,8.401-6.599,15-15,15H256V30h211C475.401,30,482,36.599,482,45z"/>
<g>
	<path style="fill:#FFDA45;" d="M97,245.499c-6,5.7-6,15.3,0,21l30,30c2.699,3.001,6.599,4.501,10.5,4.501H316
		c8.401,0,15,6.599,15,15c0,8.399-6.599,15-15,15H137.5c-11.999,0-23.399-4.801-31.8-13.2l-30-30
		c-17.699-17.401-17.699-46.201,0-63.6L224.2,75.7c8.699-8.7,20.4-13.2,31.8-13.2s23.101,4.5,31.8,13.2l49.799,49.799
		c5.7,5.7,5.7,15.3,0,21c-5.999,6-15.298,6-21.299,0L266.499,97C263.8,93.999,259.9,92.5,256,92.5s-7.8,1.5-10.499,4.501L97,245.499
		z"/>
	<path style="fill:#FFDA45;" d="M436.3,287.8L287.8,436.3c-8.699,8.699-20.4,13.2-31.8,13.2s-23.101-4.501-31.8-13.2l-49.799-49.801
		c-5.7-5.7-5.7-15.3,0-21c5.999-5.999,15.298-5.999,21.299,0L245.501,415c2.699,2.999,6.599,4.5,10.499,4.5s7.8-1.501,10.499-4.501
		l148.5-148.5c6-5.7,6-15.3,0-21l-30-30C382.301,212.5,378.401,211,374.5,211H196c-8.401,0-15-6.601-15-15c0-8.401,6.599-15,15-15
		h178.5c11.999,0,23.399,4.799,31.8,13.2l30,30C453.999,241.599,453.999,270.399,436.3,287.8z"/>
</g>
<path style="fill:#FFBC36;" d="M266.499,97C263.8,93.999,259.9,92.5,256,92.5v-30c11.4,0,23.101,4.501,31.8,13.2l49.799,49.799
	c5.7,5.7,5.7,15.3,0,21c-5.999,6-15.298,6-21.299,0L266.499,97z"/>
<path d="M316,331h-60v-30h60c8.401,0,15,6.599,15,15C331,324.399,324.401,331,316,331z"/>
<path style="fill:#FFBC36;" d="M436.3,287.8L287.8,436.3c-8.699,8.699-20.4,13.2-31.8,13.2v-30c3.9,0,7.8-1.501,10.499-4.501
	l148.5-148.5c6-5.7,6-15.3,0-21l-30-30C382.301,212.5,378.401,211,374.5,211H256v-30h118.5c11.999,0,23.399,4.799,31.8,13.2l30,30
	C453.999,241.599,453.999,270.399,436.3,287.8z"/>
<path style="fill:#E4E4E4;" d="M376,196c0,8.399-6.599,15-15,15H196c-8.401,0-15-6.601-15-15c0-8.401,6.599-15,15-15h165
	C369.401,181,376,187.599,376,196z"/>
<path style="fill:#BEC3D2;" d="M376,196c0,8.399-6.599,15-15,15H256v-30h105C369.401,181,376,187.599,376,196z"/>
<path style="fill:#E4E4E4;" d="M331,316c0,8.399-6.599,15-15,15H151c-8.401,0-15-6.601-15-15c0-8.401,6.599-15,15-15h165
	C324.401,301,331,307.599,331,316z"/>
<path style="fill:#BEC3D2;" d="M331,316c0,8.399-6.599,15-15,15h-60v-30h60C324.401,301,331,307.599,331,316z"/>
<path style="fill:#E4E4E4;" d="M331,256c0,8.399-6.599,15-15,15H196c-8.401,0-15-6.601-15-15c0-8.401,6.599-15,15-15h120
	C324.401,241,331,247.599,331,256z"/>
<path style="fill:#BEC3D2;" d="M316,271h-60v-30h60c8.401,0,15,6.599,15,15C331,264.399,324.401,271,316,271z"/>
<g>
</g>
<g>
</g>
<g>
</g>
<g>
</g>
<g>
</g>
<g>
</g>
<g>
</g>
<g>
</g>
<g>
</g>
<g>
</g>
<g>
</g>
<g>
</g>
<g>
</g>
<g>
</g>
<g>
</g>
</svg>
