<?xml version="1.0" encoding="iso-8859-1"?>
<!-- Generator: Adobe Illustrator 19.0.0, SVG Export Plug-In . SVG Version: 6.00 Build 0)  -->
<svg version="1.1" id="Capa_1" xmlns="http://www.w3.org/2000/svg" xmlns:xlink="http://www.w3.org/1999/xlink" x="0px" y="0px"
	 viewBox="0 0 512 512" style="enable-background:new 0 0 512 512;" xml:space="preserve">
<path style="fill:#19CFFC;" d="M467,0H45C20.099,0,0,20.099,0,45v422c0,24.901,20.099,45,45,45h422c24.901,0,45-20.099,45-45V45
	C512,20.099,491.901,0,467,0z"/>
<path style="fill:#1EA1E3;" d="M512,45v422c0,24.901-20.099,45-45,45H256V0h211C491.901,0,512,20.099,512,45z"/>
<path style="fill:#053791;" d="M467,30H45c-8.401,0-15,6.599-15,15v422c0,8.401,6.599,15,15,15h422c8.401,0,15-6.599,15-15V45
	C482,36.599,475.401,30,467,30z"/>
<path style="fill:#1B2868;" d="M482,45v422c0,8.401-6.599,15-15,15H256V30h211C475.401,30,482,36.599,482,45z"/>
<path style="fill:#E4E4E4;" d="M361,211c0,67.2-44.099,124.2-105,143.399c-14.399,4.2-29.399,6.601-45,6.601
	c-4.799,0-9.6-0.3-14.399-0.901l-36-12.599l23.699-19.501c8.4,2.1,17.4,3.001,26.7,3.001c15.901,0,31.199-3.001,45-9
	c44.099-17.701,75-60.601,75-111c0-9.3-0.901-18.3-2.999-26.7l19.499-8.7l12.599,20.999C360.7,201.4,361,206.199,361,211z"/>
<path style="fill:#BEC3D2;" d="M328.363,264.716l-81.079-81.079c-5.859-5.859-5.859-15.352,0-21.211s15.352-5.859,21.211,0
	l81.079,81.079c5.859,5.859,5.859,15.352,0,21.211S334.223,270.575,328.363,264.716z"/>
<g>
	<path style="fill:#E4E4E4;" d="M317.199,317.199c-5.999,5.7-15.599,5.7-21.299,0l-101.1-101.1c-5.7-5.7-5.7-15.3,0-21.301
		c5.999-5.7,15.599-5.7,21.299,0l101.1,101.1C322.899,301.599,322.899,311.199,317.199,317.199z"/>
	<path style="fill:#E4E4E4;" d="M243.505,349.574l-81.079-81.079c-5.859-5.859-5.859-15.352,0-21.211s15.352-5.859,21.211,0
		l81.079,81.079c5.859,5.859,5.859,15.352,0,21.211S249.364,355.434,243.505,349.574z"/>
</g>
<path style="fill:#1EA1E3;" d="M309.862,436.542c-1.45-8.159,3.999-15.938,12.158-17.373c16.187-2.856,31.362-8.936,45.132-18.047
	c6.899-4.585,16.201-2.695,20.786,4.233c4.57,6.899,2.681,16.216-4.233,20.786c-17.212,11.396-36.211,18.984-56.47,22.559
	C319.232,450.167,311.308,444.8,309.862,436.542z M405.824,387.396c-6.929-4.541-8.862-13.843-4.336-20.771
	c9.038-13.799,15.029-29.019,17.798-45.22c1.392-8.159,9.155-13.696,17.3-12.261c8.174,1.392,13.667,9.141,12.261,17.3
	c-3.457,20.303-10.942,39.346-22.251,56.616C422.018,390.032,412.717,391.898,405.824,387.396z M417.66,272.758
	c-3.867-15.996-10.854-30.776-20.801-43.945c-4.98-6.621-3.662-16.025,2.944-21.021c6.621-5.01,15.996-3.677,21.021,2.944
	c12.407,16.479,21.167,34.966,25.986,54.99c1.948,8.057-3.003,16.157-11.06,18.091C427.905,285.779,419.631,280.938,417.66,272.758z
	"/>
<path style="fill:#19CFFC;" d="M375.099,170.499c-7.5-4.199-15-7.798-23.099-10.499c-15.6-43.801-51.3-78-96-92.101
	C241.601,63.399,226.601,61,211,61c-82.8,0-150,67.2-150,150c0,64.799,41.4,120.3,99,141c2.701,8.099,6.301,15.599,10.501,23.099
	c4.199,7.2,13.2,9.6,20.4,5.7c7.2-4.2,9.899-13.2,5.7-20.4v-0.3c-5.7-10.199-9.901-21-12.301-32.1C181.901,319.3,181,310.3,181,301
	c0-50.4,30.901-93.3,75-111c13.801-6,29.099-9,45-9c9.3,0,18.3,0.899,27.001,3.3c11.1,2.401,21.899,6.599,32.098,12.299h0.3
	c7.2,4.2,16.201,1.501,20.4-5.7C384.699,183.699,382.301,174.699,375.099,170.499z"/>
<g>
	<path style="fill:#BEC3D2;" d="M361,211c0,67.2-44.099,124.2-105,143.399V322c44.099-17.701,75-60.601,75-111
		c0-9.3-0.901-18.3-2.999-26.7l19.499-8.7l12.599,20.999C360.7,201.4,361,206.199,361,211z"/>
	<path style="fill:#BEC3D2;" d="M317.199,317.199c-5.999,5.7-15.599,5.7-21.299,0l-39.9-39.9V234.7l61.199,61.199
		C322.899,301.599,322.899,311.199,317.199,317.199z"/>
</g>
<path style="fill:#1EA1E3;" d="M380.799,190.899c-4.199,7.202-13.2,9.901-20.4,5.7h-0.3c-10.199-5.7-20.999-9.899-32.098-12.299
	C319.3,181.899,310.3,181,301,181c-15.901,0-31.199,2.999-45,9V67.9c44.7,14.101,80.4,48.3,96,92.1
	c8.099,2.701,15.599,6.301,23.099,10.499C382.301,174.699,384.699,183.699,380.799,190.899z"/>
<path style="fill:#19CFFC;" d="M284.5,435.7c-1.8,8.101-9.6,13.2-18.001,11.4c-3.6-0.901-7.2-1.8-10.499-3.001
	c-16.199-5.099-31.199-12.599-44.7-22.798c-6.601-5.101-7.8-14.401-3.001-21c5.101-6.601,14.401-8.101,21-3.001
	c8.101,6.301,17.1,11.1,26.7,15c5.7,2.1,11.4,3.9,17.401,5.402C281.499,419.799,286.3,427.899,284.5,435.7z"/>
<path style="fill:#1EA1E3;" d="M284.5,435.7c-1.8,8.101-9.6,13.2-18.001,11.4c-3.6-0.901-7.2-1.8-10.499-3.001v-31.8
	c5.7,2.1,11.4,3.9,17.401,5.402C281.499,419.799,286.3,427.899,284.5,435.7z"/>
<g>
</g>
<g>
</g>
<g>
</g>
<g>
</g>
<g>
</g>
<g>
</g>
<g>
</g>
<g>
</g>
<g>
</g>
<g>
</g>
<g>
</g>
<g>
</g>
<g>
</g>
<g>
</g>
<g>
</g>
</svg>
