<?xml version="1.0" encoding="iso-8859-1"?>
<!-- Generator: Adobe Illustrator 19.0.0, SVG Export Plug-In . SVG Version: 6.00 Build 0)  -->
<svg version="1.1" id="Capa_1" xmlns="http://www.w3.org/2000/svg" xmlns:xlink="http://www.w3.org/1999/xlink" x="0px" y="0px"
	 viewBox="0 0 512 512" style="enable-background:new 0 0 512 512;" xml:space="preserve">
<path style="fill:#93D632;" d="M467,0H45C20.099,0,0,20.099,0,45v422c0,24.901,20.099,45,45,45h422c24.901,0,45-20.099,45-45V45
	C512,20.099,491.901,0,467,0z"/>
<path style="fill:#86C42B;" d="M512,45v422c0,24.901-20.099,45-45,45H256V0h211C491.901,0,512,20.099,512,45z"/>
<path style="fill:#4B5F1E;" d="M467,30H45c-8.401,0-15,6.599-15,15v422c0,8.401,6.599,15,15,15h422c8.401,0,15-6.599,15-15V45
	C482,36.599,475.401,30,467,30z"/>
<path style="fill:#3A4A17;" d="M482,45v422c0,8.401-6.599,15-15,15H256V30h211C475.401,30,482,36.599,482,45z"/>
<path style="fill:#93D632;" d="M136,391H76c-8.291,0-15-6.709-15-15V136c0-8.291,6.709-15,15-15h60c57.891,0,105,47.109,105,105v60
	C241,343.891,193.891,391,136,391z M91,361h45c41.353,0,75-33.647,75-75v-60c0-41.353-33.647-75-75-75H91V361z"/>
<path style="fill:#86C42B;" d="M439.633,241.454c-8.042-2.109-16.187,2.856-18.179,10.913l-18.325,73.257
	c-2.899-7.704,10.491,27.91-28.358-75.339c-3.854-9.274-18.121-15.016-27.819,0.441l-28.081,74.897l-18.325-73.257
	c-2.007-8.057-10.225-13.008-18.179-10.913c-8.042,2.007-12.935,10.151-10.913,18.179l30,120
	c1.582,6.372,7.134,10.972,13.696,11.338c0.278,0.015,0.571,0.029,0.85,0.029c6.226,0,11.836-3.853,14.048-9.727L361,298.735
	l30.952,82.538C394.164,387.147,399.774,391,406,391c0.278,0,0.571-0.015,0.85-0.029c6.563-0.366,12.114-4.966,13.696-11.338l30-120
	C452.567,251.605,447.675,243.461,439.633,241.454z"/>
<g>
</g>
<g>
</g>
<g>
</g>
<g>
</g>
<g>
</g>
<g>
</g>
<g>
</g>
<g>
</g>
<g>
</g>
<g>
</g>
<g>
</g>
<g>
</g>
<g>
</g>
<g>
</g>
<g>
</g>
</svg>
