<?xml version="1.0" encoding="iso-8859-1"?>
<!-- Generator: Adobe Illustrator 19.0.0, SVG Export Plug-In . SVG Version: 6.00 Build 0)  -->
<svg version="1.1" id="Capa_1" xmlns="http://www.w3.org/2000/svg" xmlns:xlink="http://www.w3.org/1999/xlink" x="0px" y="0px"
	 viewBox="0 0 512 512" style="enable-background:new 0 0 512 512;" xml:space="preserve">
<path style="fill:#19CFFC;" d="M467,0H45C20.099,0,0,20.099,0,45v422c0,24.901,20.099,45,45,45h422c24.901,0,45-20.099,45-45V45
	C512,20.099,491.901,0,467,0z"/>
<path style="fill:#1EA1E3;" d="M512,45v422c0,24.901-20.099,45-45,45H256V0h211C491.901,0,512,20.099,512,45z"/>
<path style="fill:#053791;" d="M467,30H45c-8.401,0-15,6.599-15,15v422c0,8.401,6.599,15,15,15h422c8.401,0,15-6.599,15-15V45
	C482,36.599,475.401,30,467,30z"/>
<path style="fill:#1B2868;" d="M482,45v422c0,8.401-6.599,15-15,15H256V30h211C475.401,30,482,36.599,482,45z"/>
<path style="fill:#E4E4E4;" d="M436.3,224.2L287.8,75.7c-8.699-8.7-20.4-13.2-31.8-13.2s-23.101,4.5-31.8,13.2L75.7,224.2
	c-17.699,17.401-17.699,46.199,0,63.6l148.5,148.5c8.699,8.699,20.4,13.2,31.8,13.2c11.4,0,23.101-4.501,31.8-13.2l148.5-148.5
	C453.999,270.399,453.999,241.601,436.3,224.2z"/>
<path style="fill:#C1C1C1;" d="M436.3,287.8L287.8,436.3c-8.699,8.699-20.4,13.2-31.8,13.2v-387c11.4,0,23.101,4.501,31.8,13.2
	l148.5,148.5C453.999,241.601,453.999,270.399,436.3,287.8z"/>
<g>
	<path style="fill:#053791;" d="M415,245.501L266.499,97C263.8,93.999,259.9,92.5,256,92.5s-7.8,1.5-10.499,4.501L97,245.501
		c-6,5.7-6,15.298,0,20.999L245.5,415c2.7,3.001,6.6,4.5,10.5,4.5s7.8-1.5,10.499-4.501l148.5-148.5
		C421,260.799,421,251.201,415,245.501z"/>
	<path style="fill:#053791;" d="M415,266.499L266.499,415c-2.699,3.001-6.599,4.5-10.499,4.5v-327c3.9,0,7.8,1.5,10.499,4.501
		l148.5,148.5C421,251.201,421,260.799,415,266.499z"/>
</g>
<path style="fill:#1EA1E3;" d="M316,331c-24.814,0-45-20.186-45-45c0-8.291,6.709-15,15-15s15,6.709,15,15c0,8.276,6.724,15,15,15
	s15-6.724,15-15s-6.724-15-15-15c-24.814,0-45-20.186-45-45s20.186-45,45-45s45,20.186,45,45c0,8.291-6.709,15-15,15
	s-15-6.709-15-15c0-8.276-6.724-15-15-15s-15,6.724-15,15s6.724,15,15,15c24.814,0,45,20.186,45,45S340.814,331,316,331z"/>
<path style="fill:#19CFFC;" d="M211,181h-30c-8.291,0-15,6.709-15,15c0,3.256,0,124.455,0,120c0,8.291,6.709,15,15,15
	s15-6.709,15-15v-45h15c24.814,0,45-20.186,45-45S235.814,181,211,181z M211,241h-15v-30h15c8.276,0,15,6.724,15,15
	S219.276,241,211,241z"/>
<g>
</g>
<g>
</g>
<g>
</g>
<g>
</g>
<g>
</g>
<g>
</g>
<g>
</g>
<g>
</g>
<g>
</g>
<g>
</g>
<g>
</g>
<g>
</g>
<g>
</g>
<g>
</g>
<g>
</g>
</svg>
