<?xml version="1.0" encoding="iso-8859-1"?>
<!-- Generator: Adobe Illustrator 19.0.0, SVG Export Plug-In . SVG Version: 6.00 Build 0)  -->
<svg version="1.1" id="Capa_1" xmlns="http://www.w3.org/2000/svg" xmlns:xlink="http://www.w3.org/1999/xlink" x="0px" y="0px"
	 viewBox="0 0 512 512" style="enable-background:new 0 0 512 512;" xml:space="preserve">
<path style="fill:#C78FF5;" d="M467,0H45C20.099,0,0,20.099,0,45v422c0,24.901,20.099,45,45,45h422c24.901,0,45-20.099,45-45V45
	C512,20.099,491.901,0,467,0z"/>
<path style="fill:#B674F2;" d="M512,45v422c0,24.901-20.099,45-45,45H256V0h211C491.901,0,512,20.099,512,45z"/>
<path style="fill:#4B1B7A;" d="M467,30H45c-8.401,0-15,6.599-15,15v422c0,8.401,6.599,15,15,15h422c8.401,0,15-6.599,15-15V45
	C482,36.599,475.401,30,467,30z"/>
<path style="fill:#2C0652;" d="M482,45v422c0,8.401-6.599,15-15,15H256V30h211C475.401,30,482,36.599,482,45z"/>
<path style="fill:#C78FF5;" d="M285.099,370.6L256,292.899L195.099,130.6c-4.499-11.7-23.699-11.7-28.198,0l-90,240
	c-2.701,7.8,1.199,16.5,8.699,19.499c7.8,2.701,16.5-1.199,19.499-8.699l41.4-110.4H215.5L256,378.999l0.901,2.401
	c2.999,7.5,11.398,11.7,19.499,8.699C283.9,387.1,287.8,378.401,285.099,370.6z M157.599,241L181,178.599L204.401,241H157.599z"/>
<g>
	<path style="fill:#B674F2;" d="M376,391c-41.353,0-75-40.371-75-90s33.647-90,75-90s75,40.371,75,90c0,8.291-6.709,15-15,15
		H332.421c5.01,25.854,22.646,45,43.579,45c11.646,0,20.42-5.947,25.737-10.942c6.079-5.64,15.542-5.361,21.211,0.674
		c5.669,6.05,5.361,15.542-0.674,21.211C408.988,384.408,392.992,391,376,391z M332.421,286h87.158
		c-5.01-25.854-22.646-45-43.579-45S337.431,260.146,332.421,286z"/>
	<path style="fill:#B674F2;" d="M276.4,390.099c-8.101,3.001-16.5-1.199-19.499-8.699L256,378.999v-86.1l29.099,77.701
		C287.8,378.401,283.9,387.1,276.4,390.099z"/>
</g>
<g>
</g>
<g>
</g>
<g>
</g>
<g>
</g>
<g>
</g>
<g>
</g>
<g>
</g>
<g>
</g>
<g>
</g>
<g>
</g>
<g>
</g>
<g>
</g>
<g>
</g>
<g>
</g>
<g>
</g>
</svg>
