<?xml version="1.0" encoding="iso-8859-1"?>
<!-- Generator: Adobe Illustrator 19.0.0, SVG Export Plug-In . SVG Version: 6.00 Build 0)  -->
<svg version="1.1" id="Capa_1" xmlns="http://www.w3.org/2000/svg" xmlns:xlink="http://www.w3.org/1999/xlink" x="0px" y="0px"
	 viewBox="0 0 512 512" style="enable-background:new 0 0 512 512;" xml:space="preserve">
<path style="fill:#19CFFC;" d="M467,0H45C20.099,0,0,20.099,0,45v422c0,24.901,20.099,45,45,45h422c24.901,0,45-20.099,45-45V45
	C512,20.099,491.901,0,467,0z"/>
<path style="fill:#1EA1E3;" d="M512,45v422c0,24.901-20.099,45-45,45H256V0h211C491.901,0,512,20.099,512,45z"/>
<path style="fill:#053791;" d="M467,30H45c-8.401,0-15,6.599-15,15v422c0,8.401,6.599,15,15,15h422c8.401,0,15-6.599,15-15V45
	C482,36.599,475.401,30,467,30z"/>
<path style="fill:#1B2868;" d="M482,45v422c0,8.401-6.599,15-15,15H256V30h211C475.401,30,482,36.599,482,45z"/>
<path style="fill:#BFE1FF;" d="M432.1,175.899L256,74.2l-18.6-10.801C215.799,51.1,188.2,58.3,175.9,79.9L63.4,274.6
	c-12.601,21.599-5.101,49.2,16.5,61.5L256,437.8l18.6,10.8c21.899,12.599,49.2,5.099,61.5-16.5l112.5-194.7
	C461.201,215.799,453.701,188.2,432.1,175.899z"/>
<path style="fill:#9BC5FF;" d="M448.599,237.4l-112.5,194.7c-12.299,21.599-39.6,29.099-61.5,16.5L256,437.8V74.2l176.1,101.699
	C453.701,188.2,461.201,215.799,448.599,237.4z"/>
<path style="fill:#053791;" d="M417.1,201.7L256,108.699L222.4,89.2c-7.2-3.9-16.5-1.5-20.7,5.7L89.2,289.6
	c-1.199,2.401-1.8,4.799-1.8,7.5c0,5.099,2.699,10.499,7.5,13.2L256,403.299l33.6,19.501c7.2,3.9,16.5,1.5,20.7-5.7l112.5-194.7
	C426.7,215.2,424.3,205.899,417.1,201.7z"/>
<path style="fill:#1B2868;" d="M422.8,222.4L310.3,417.1c-4.2,7.2-13.5,9.6-20.7,5.7L256,403.299v-294.6L417.1,201.7
	C424.3,205.899,426.7,215.2,422.8,222.4z"/>
<path style="fill:#1EA1E3;" d="M361,256c0-24.516-8.798-46.804-22.936-64.693l-52.053,30.053l74.161,42.821
	C360.388,261.435,361,258.802,361,256z"/>
<g>
	<path style="fill:#19CFFC;" d="M151.828,247.824C151.612,250.569,151,253.2,151,256c0,24.516,8.798,46.805,22.938,64.695
		l52.051-30.055L151.828,247.824z"/>
	<path style="fill:#19CFFC;" d="M211,247.341v-85.809c-23.692,11.342-42.515,31.086-52.341,55.589L211,247.341z"/>
	<path style="fill:#19CFFC;" d="M315.399,169.6L256,204.099l-15,8.701v-60.3c4.799-0.601,9.901-1.5,15-1.5
		C278.2,151,298.599,157.899,315.399,169.6z"/>
</g>
<path style="fill:#1EA1E3;" d="M301,264.663v85.805c23.69-11.342,42.515-31.086,52.341-55.585L301,264.663z"/>
<path style="fill:#19CFFC;" d="M271,299.2v60.3c-4.799,0.599-9.901,1.5-15,1.5c-22.2,0-42.599-6.901-59.399-18.6L256,307.899
	l7.5-4.2L271,299.2z"/>
<g>
	<path style="fill:#1EA1E3;" d="M263.5,303.699l7.5-4.499v60.3c-4.799,0.599-9.901,1.5-15,1.5v-53.101L263.5,303.699z"/>
	<path style="fill:#1EA1E3;" d="M315.399,169.6L256,204.099V151C278.2,151,298.599,157.899,315.399,169.6z"/>
</g>
<g>
</g>
<g>
</g>
<g>
</g>
<g>
</g>
<g>
</g>
<g>
</g>
<g>
</g>
<g>
</g>
<g>
</g>
<g>
</g>
<g>
</g>
<g>
</g>
<g>
</g>
<g>
</g>
<g>
</g>
</svg>
