<?xml version="1.0" encoding="iso-8859-1"?>
<!-- Generator: Adobe Illustrator 19.0.0, SVG Export Plug-In . SVG Version: 6.00 Build 0)  -->
<svg version="1.1" id="Capa_1" xmlns="http://www.w3.org/2000/svg" xmlns:xlink="http://www.w3.org/1999/xlink" x="0px" y="0px"
	 viewBox="0 0 512 512" style="enable-background:new 0 0 512 512;" xml:space="preserve">
<path style="fill:#EBCCFF;" d="M467,512H45c-24.813,0-45-20.187-45-45V45C0,20.187,20.187,0,45,0h422c24.813,0,45,20.187,45,45v422
	C512,491.813,491.813,512,467,512z"/>
<path style="fill:#E0B8FF;" d="M256,512h211c24.813,0,45-20.187,45-45V45c0-24.813-20.187-45-45-45H256V512z"/>
<path style="fill:#5A2263;" d="M45,30c-8.271,0-15,6.729-15,15v422c0,8.271,6.729,15,15,15h422c8.271,0,15-6.729,15-15V45
	c0-8.271-6.729-15-15-15H45z"/>
<path style="fill:#2C0652;" d="M256,482h211c8.271,0,15-6.729,15-15V45c0-8.271-6.729-15-15-15H256V482z"/>
<path style="fill:#EBCCFF;" d="M105.002,362c-3.916,0-7.75-1.535-10.608-4.394c-4.018-4.017-5.42-9.96-3.624-15.35l30-90
	c0.737-2.209,1.977-4.217,3.624-5.863l152-152c5.857-5.858,15.355-5.858,21.213,0l60,60c5.858,5.858,5.858,15.355,0,21.213l-152,152
	c-1.646,1.647-3.654,2.887-5.863,3.624l-90,30C108.189,361.749,106.588,362,105.002,362z"/>
<path style="fill:#E0B8FF;" d="M256,277.213l101.606-101.606c5.858-5.858,5.858-15.355,0-21.213l-60-60
	c-5.857-5.858-15.355-5.858-21.213,0L256,114.787V277.213z"/>
<path style="fill:#EBCCFF;" d="M407,422c-17.222,0-25.521-7.58-29.45-13.938c-0.831-1.344-1.521-2.718-2.087-4.107
	C358.539,412.668,335.982,422,317,422c-10.844,0-22.902-2.268-32.671-7.827C268.718,419.375,251.693,422,233.47,422H75
	c-8.284,0-15-6.716-15-15s6.716-15,15-15h158.47c11.409,0,22.171-1.227,32.207-3.664c-3.438-21.31,12.811-46.102,49.426-75.528
	c14.785-11.883,31.33-15.409,44.257-9.432c9.793,4.528,15.825,13.955,16.137,25.219c0.539,19.53-15.512,41.167-44.865,61.331
	c19.859-5.286,43.829-19.276,53.055-25.411c5.69-3.785,13.275-3.338,18.366,1.225c5.092,4.563,6.505,11.896,3.363,17.969
	c-1.154,2.396-2.089,5.926-2.179,7.971c0.757,0.16,1.963,0.32,3.763,0.32c6.209,0,15.695-6.908,19.394-10.606
	c5.857-5.858,15.355-5.858,21.213,0s5.858,15.355,0,21.213C445.622,404.592,427.618,422,407,422z M345.479,330.573
	c-2.076,0.173-6.208,1.3-11.582,5.619c-22.091,17.754-32.349,30.788-36.388,39.053C335.714,353.663,344.67,336.329,345.479,330.573z
	"/>
<path style="fill:#E0B8FF;" d="M256,420.581c9.883-1.277,19.342-3.413,28.329-6.407C294.098,419.732,306.156,422,317,422
	c18.982,0,41.539-9.332,58.463-18.044c0.566,1.389,1.256,2.763,2.087,4.107C381.479,414.42,389.778,422,407,422
	c20.618,0,38.622-17.408,40.606-19.394c5.858-5.858,5.858-15.355,0-21.213c-5.857-5.858-15.355-5.858-21.213,0
	C422.695,385.092,413.209,392,407,392c-1.8,0-3.006-0.16-3.763-0.321c0.09-2.045,1.024-5.576,2.179-7.971
	c3.142-6.072,1.729-13.406-3.363-17.969c-5.091-4.563-12.676-5.01-18.366-1.225c-9.226,6.135-33.195,20.125-53.055,25.411
	c29.354-20.163,45.404-41.801,44.865-61.331c-0.312-11.264-6.344-20.691-16.137-25.219c-12.927-5.978-29.472-2.451-44.257,9.432
	c-36.615,29.427-52.865,54.218-49.426,75.528c-3.152,0.765-6.384,1.397-9.677,1.923V420.581z M333.896,336.192
	c5.374-4.318,9.506-5.446,11.582-5.619c-0.809,5.755-9.765,23.089-47.97,44.671C301.548,366.98,311.806,353.946,333.896,336.192z"/>
<g>
</g>
<g>
</g>
<g>
</g>
<g>
</g>
<g>
</g>
<g>
</g>
<g>
</g>
<g>
</g>
<g>
</g>
<g>
</g>
<g>
</g>
<g>
</g>
<g>
</g>
<g>
</g>
<g>
</g>
</svg>
