<?xml version="1.0" encoding="iso-8859-1"?>
<!-- Generator: Adobe Illustrator 19.0.0, SVG Export Plug-In . SVG Version: 6.00 Build 0)  -->
<svg version="1.1" id="Capa_1" xmlns="http://www.w3.org/2000/svg" xmlns:xlink="http://www.w3.org/1999/xlink" x="0px" y="0px"
	 viewBox="0 0 512 512" style="enable-background:new 0 0 512 512;" xml:space="preserve">
<path style="fill:#E4E4E4;" d="M467,0H45C20.099,0,0,20.099,0,45v422c0,24.901,20.099,45,45,45h422c24.901,0,45-20.099,45-45V45
	C512,20.099,491.901,0,467,0z"/>
<path style="fill:#BEC3D2;" d="M512,45v422c0,24.901-20.099,45-45,45H256V0h211C491.901,0,512,20.099,512,45z"/>
<path style="fill:#414952;" d="M467,30H45c-8.401,0-15,6.599-15,15v422c0,8.401,6.599,15,15,15h422c8.401,0,15-6.599,15-15V45
	C482,36.599,475.401,30,467,30z"/>
<path style="fill:#333940;" d="M482,45v422c0,8.401-6.599,15-15,15H256V30h211C475.401,30,482,36.599,482,45z"/>
<path style="fill:#E4E4E4;" d="M181,391c-41.353,0-75-33.647-75-75c0-8.291,6.709-15,15-15s15,6.709,15,15c0,24.814,20.186,45,45,45
	s45-20.186,45-45s-20.186-45-45-45c-41.353,0-75-33.647-75-75s33.647-75,75-75s75,33.647,75,75c0,8.291-6.709,15-15,15
	s-15-6.709-15-15c0-24.814-20.186-45-45-45s-45,20.186-45,45s20.186,45,45,45c41.353,0,75,33.647,75,75S222.353,391,181,391z"/>
<path style="fill:#BEC3D2;" d="M361,391c-41.353,0-75-33.647-75-75v-60c0-41.353,33.647-75,75-75
	c20.039,0,38.877,7.808,53.042,21.973c5.845,5.874,5.845,15.366-0.015,21.226c-5.859,5.83-15.366,5.845-21.226-0.015
	C384.32,215.673,373.026,211,361,211c-24.814,0-45,20.186-45,45v60c0,24.814,20.186,45,45,45c12.026,0,23.32-4.673,31.802-13.184
	c5.859-5.859,15.366-5.845,21.226-0.015c5.859,5.859,5.859,15.352,0.015,21.226C399.877,383.192,381.039,391,361,391z"/>
<g>
</g>
<g>
</g>
<g>
</g>
<g>
</g>
<g>
</g>
<g>
</g>
<g>
</g>
<g>
</g>
<g>
</g>
<g>
</g>
<g>
</g>
<g>
</g>
<g>
</g>
<g>
</g>
<g>
</g>
</svg>
