<?xml version="1.0" encoding="iso-8859-1"?>
<!-- Generator: Adobe Illustrator 19.0.0, SVG Export Plug-In . SVG Version: 6.00 Build 0)  -->
<svg version="1.1" id="Capa_1" xmlns="http://www.w3.org/2000/svg" xmlns:xlink="http://www.w3.org/1999/xlink" x="0px" y="0px"
	 viewBox="0 0 512 512" style="enable-background:new 0 0 512 512;" xml:space="preserve">
<path style="fill:#96EBE6;" d="M467,0H45C20.099,0,0,20.099,0,45v422c0,24.901,20.099,45,45,45h422c24.901,0,45-20.099,45-45V45
	C512,20.099,491.901,0,467,0z"/>
<path style="fill:#00C8C8;" d="M512,45v422c0,24.901-20.099,45-45,45H256V0h211C491.901,0,512,20.099,512,45z"/>
<path style="fill:#006F77;" d="M467,30H45c-8.401,0-15,6.599-15,15v422c0,8.401,6.599,15,15,15h422c8.401,0,15-6.599,15-15V45
	C482,36.599,475.401,30,467,30z"/>
<path style="fill:#0F5A64;" d="M482,45v422c0,8.401-6.599,15-15,15H256V30h211C475.401,30,482,36.599,482,45z"/>
<path style="fill:#96EBE6;" d="M206.648,245.808C218.544,232.531,226,215.188,226,196c0-41.353-33.647-75-75-75H91
	c-8.291,0-15,6.709-15,15c0,3.575,0,249.316,0,240c0,8.291,6.709,15,15,15h90c41.353,0,75-33.647,75-75
	C256,283.693,235.351,256.341,206.648,245.808z M106,151h45c24.814,0,45,20.186,45,45s-20.186,45-45,45h-45V151z M181,361h-75v-90
	c4.545,0,79.455,0,75,0c24.814,0,45,20.186,45,45S205.814,361,181,361z"/>
<path style="fill:#00C8C8;" d="M421,121c-8.291,0-15,6.709-15,15v80.229c-9.543-3.38-19.616-5.229-30-5.229
	c-49.629,0-90,40.371-90,90s40.371,90,90,90c11.486,0,22.549-2.375,32.972-6.497C411.687,388.338,415.939,391,421,391
	c8.291,0,15-6.709,15-15V136C436,127.709,429.291,121,421,121z M316,301c0-33.091,26.909-60,60-60c10.789,0,20.848,3.464,30,8.846
	v102.308c-9.152,5.381-19.211,8.846-30,8.846C342.909,361,316,334.091,316,301z"/>
<g>
</g>
<g>
</g>
<g>
</g>
<g>
</g>
<g>
</g>
<g>
</g>
<g>
</g>
<g>
</g>
<g>
</g>
<g>
</g>
<g>
</g>
<g>
</g>
<g>
</g>
<g>
</g>
<g>
</g>
</svg>
