<?xml version="1.0" encoding="iso-8859-1"?>
<!-- Generator: Adobe Illustrator 19.0.0, SVG Export Plug-In . SVG Version: 6.00 Build 0)  -->
<svg version="1.1" id="Capa_1" xmlns="http://www.w3.org/2000/svg" xmlns:xlink="http://www.w3.org/1999/xlink" x="0px" y="0px"
	 viewBox="0 0 512 512" style="enable-background:new 0 0 512 512;" xml:space="preserve">
<path style="fill:#FFDA45;" d="M467,0H45C20.099,0,0,20.099,0,45v422c0,24.901,20.099,45,45,45h422c24.901,0,45-20.099,45-45V45
	C512,20.099,491.901,0,467,0z"/>
<path style="fill:#FFBC36;" d="M512,45v422c0,24.901-20.099,45-45,45H256V0h211C491.901,0,512,20.099,512,45z"/>
<path style="fill:#414952;" d="M467,30H45c-8.401,0-15,6.599-15,15v422c0,8.401,6.599,15,15,15h422c8.401,0,15-6.599,15-15V45
	C482,36.599,475.401,30,467,30z"/>
<path style="fill:#333940;" d="M482,45v422c0,8.401-6.599,15-15,15H256V30h211C475.401,30,482,36.599,482,45z"/>
<g>
	<path style="fill:#FFDA45;" d="M136,151H91v-15c0-8.276,6.724-15,15-15c8.291,0,15-6.709,15-15s-6.709-15-15-15
		c-24.814,0-45,20.186-45,45c0,4.484,0,94.34,0,90c0,8.291,6.709,15,15,15h60c8.291,0,15-6.709,15-15v-60
		C151,157.709,144.291,151,136,151z"/>
	<path style="fill:#FFDA45;" d="M256,151h-45v-15c0-8.401,6.599-15,15-15s15-6.601,15-15c0-8.401-6.599-15-15-15
		c-24.901,0-45,20.099-45,45c0,4.499,0,90,0,90c0,8.399,6.599,15,15,15h60c8.401,0,15-6.601,15-15v-60
		C271,157.599,264.401,151,256,151z"/>
</g>
<g>
	<path style="fill:#BEC3D2;" d="M436,241c-8.291,0-15-6.709-15-15c0-57.891-47.109-105-105-105c-8.291,0-15-6.709-15-15
		s6.709-15,15-15c74.443,0,135,60.557,135,135C451,234.291,444.291,241,436,241z"/>
	<path style="fill:#BEC3D2;" d="M376,241c-8.291,0-15-6.709-15-15c0-24.814-20.186-45-45-45c-8.291,0-15-6.709-15-15s6.709-15,15-15
		c41.353,0,75,33.647,75,75C391,234.291,384.291,241,376,241z"/>
</g>
<path style="fill:#FFDA45;" d="M316,271h-60c-8.401,0-15,6.599-15,15v60c0,8.399,6.599,15,15,15h45v15c0,8.399-6.599,15-15,15
	s-15,6.599-15,15c0,8.399,6.599,15,15,15c24.901,0,45-20.101,45-45c0-4.501,0-90,0-90C331,277.599,324.401,271,316,271z"/>
<path style="fill:#FFBC36;" d="M436,271h-60c-8.291,0-15,6.709-15,15v60c0,8.291,6.709,15,15,15h45v15c0,8.276-6.724,15-15,15
	c-8.291,0-15,6.709-15,15s6.709,15,15,15c24.814,0,45-20.186,45-45c0-4.484,0-94.34,0-90C451,277.709,444.291,271,436,271z"/>
<g>
	<path style="fill:#E4E4E4;" d="M196,421c-74.443,0-135-60.557-135-135c0-8.291,6.709-15,15-15s15,6.709,15,15
		c0,57.891,47.109,105,105,105c8.291,0,15,6.709,15,15S204.291,421,196,421z"/>
	<path style="fill:#E4E4E4;" d="M196,361c-41.353,0-75-33.647-75-75c0-8.291,6.709-15,15-15s15,6.709,15,15
		c0,24.814,20.186,45,45,45c8.291,0,15,6.709,15,15S204.291,361,196,361z"/>
</g>
<g>
	<path style="fill:#FFBC36;" d="M256,241v-90c8.401,0,15,6.599,15,15v60C271,234.399,264.401,241,256,241z"/>
	<path style="fill:#FFBC36;" d="M331,286c0,0,0,85.499,0,90c0,24.899-20.099,45-45,45c-8.401,0-15-6.601-15-15
		c0-8.401,6.599-15,15-15s15-6.601,15-15v-15h-45v-90h60C324.401,271,331,277.599,331,286z"/>
</g>
<g>
</g>
<g>
</g>
<g>
</g>
<g>
</g>
<g>
</g>
<g>
</g>
<g>
</g>
<g>
</g>
<g>
</g>
<g>
</g>
<g>
</g>
<g>
</g>
<g>
</g>
<g>
</g>
<g>
</g>
</svg>
