<?xml version="1.0" encoding="iso-8859-1"?>
<!-- Generator: Adobe Illustrator 19.0.0, SVG Export Plug-In . SVG Version: 6.00 Build 0)  -->
<svg version="1.1" id="Capa_1" xmlns="http://www.w3.org/2000/svg" xmlns:xlink="http://www.w3.org/1999/xlink" x="0px" y="0px"
	 viewBox="0 0 512 512" style="enable-background:new 0 0 512 512;" xml:space="preserve">
<path style="fill:#FF468C;" d="M467,0H45C20.099,0,0,20.099,0,45v422c0,24.901,20.099,45,45,45h422c24.901,0,45-20.099,45-45V45
	C512,20.099,491.901,0,467,0z"/>
<path style="fill:#D72878;" d="M512,45v422c0,24.901-20.099,45-45,45H256V0h211C491.901,0,512,20.099,512,45z"/>
<path style="fill:#700029;" d="M467,30H45c-8.401,0-15,6.599-15,15v422c0,8.401,6.599,15,15,15h422c8.401,0,15-6.599,15-15V45
	C482,36.599,475.401,30,467,30z"/>
<path style="fill:#4D0E06;" d="M482,45v422c0,8.401-6.599,15-15,15H256V30h211C475.401,30,482,36.599,482,45z"/>
<path style="fill:#E4E4E4;" d="M479.599,247.899C475.699,241.599,378.999,91,256,91S36.301,241.599,32.401,247.899
	c-3.301,5.099-3.301,11.1,0,16.199C36.301,270.399,133.001,421,256,421s219.699-150.601,223.599-156.901
	C482.901,258.999,482.901,252.999,479.599,247.899z"/>
<path style="fill:#BEC3D2;" d="M479.599,264.099C475.699,270.399,378.999,421,256,421V91c122.999,0,219.699,150.599,223.599,156.899
	C482.901,252.999,482.901,258.999,479.599,264.099z"/>
<path style="fill:#700029;" d="M256,121c-91.5,0-171,105-192.001,135C85,286,164.5,391,256,391s171-105,192.001-135
	C427,226,347.5,121,256,121z"/>
<path style="fill:#4D0E06;" d="M448.001,256C427,286,347.5,391,256,391V121C347.5,121,427,226,448.001,256z"/>
<path style="fill:#D72878;" d="M361,256c0-24.516-8.798-46.804-22.936-64.693l-52.053,30.053l74.161,42.821
	C360.388,261.435,361,258.802,361,256z"/>
<g>
	<path style="fill:#FF468C;" d="M151.828,247.824C151.612,250.569,151,253.2,151,256c0,24.516,8.798,46.805,22.938,64.695
		l52.051-30.055L151.828,247.824z"/>
	<path style="fill:#FF468C;" d="M211,247.341v-85.809c-23.692,11.342-42.515,31.086-52.341,55.589L211,247.341z"/>
	<path style="fill:#FF468C;" d="M315.399,169.6L256,204.099l-15,8.701v-60.3c4.799-0.601,9.901-1.5,15-1.5
		C278.2,151,298.599,157.899,315.399,169.6z"/>
</g>
<path style="fill:#D72878;" d="M301,264.663v85.805c23.69-11.342,42.515-31.086,52.341-55.585L301,264.663z"/>
<path style="fill:#FF468C;" d="M271,299.2v60.3c-4.799,0.599-9.901,1.5-15,1.5c-22.2,0-42.599-6.901-59.399-18.6L256,307.899
	l7.5-4.2L271,299.2z"/>
<g>
	<path style="fill:#D72878;" d="M263.5,303.699l7.5-4.499v60.3c-4.799,0.599-9.901,1.5-15,1.5v-53.101L263.5,303.699z"/>
	<path style="fill:#D72878;" d="M315.399,169.6L256,204.099V151C278.2,151,298.599,157.899,315.399,169.6z"/>
</g>
<g>
</g>
<g>
</g>
<g>
</g>
<g>
</g>
<g>
</g>
<g>
</g>
<g>
</g>
<g>
</g>
<g>
</g>
<g>
</g>
<g>
</g>
<g>
</g>
<g>
</g>
<g>
</g>
<g>
</g>
</svg>
