<?xml version="1.0" encoding="iso-8859-1"?>
<!-- Generator: Adobe Illustrator 19.0.0, SVG Export Plug-In . SVG Version: 6.00 Build 0)  -->
<svg version="1.1" id="Capa_1" xmlns="http://www.w3.org/2000/svg" xmlns:xlink="http://www.w3.org/1999/xlink" x="0px" y="0px"
	 viewBox="0 0 512 512" style="enable-background:new 0 0 512 512;" xml:space="preserve">
<path style="fill:#FFA426;" d="M467,0H45C20.099,0,0,20.099,0,45v422c0,24.901,20.099,45,45,45h422c24.901,0,45-20.099,45-45V45
	C512,20.099,491.901,0,467,0z"/>
<path style="fill:#D4850F;" d="M512,45v422c0,24.901-20.099,45-45,45H256V0h211C491.901,0,512,20.099,512,45z"/>
<path style="fill:#704639;" d="M467,30H45c-8.401,0-15,6.599-15,15v422c0,8.401,6.599,15,15,15h422c8.401,0,15-6.599,15-15V45
	C482,36.599,475.401,30,467,30z"/>
<path style="fill:#5E382C;" d="M482,45v422c0,8.401-6.599,15-15,15H256V30h211C475.401,30,482,36.599,482,45z"/>
<path style="fill:#FFA426;" d="M388.9,233.5L271,439.9V298.299c17.401-6.299,30-22.8,30-42.299c0-24.901-20.099-45-45-45
	s-45,20.099-45,45c0,19.499,12.599,36,30,42.299V439.9L123.1,233.5c-3.6-6-2.401-13.2,2.401-18.001
	C161.201,179.5,181,130.8,181,80.099V75c0-8.401,6.599-15,15-15h120c8.401,0,15,6.599,15,15v5.099
	c0,50.7,19.799,99.401,55.499,135.399C391.3,220.3,392.5,227.5,388.9,233.5z"/>
<path style="fill:#E4E4E4;" d="M445.6,297.4l-180,150c-2.701,2.399-6.301,3.6-9.6,3.6s-6.899-1.201-9.6-3.6l-180-150
	c-6.301-5.101-7.2-14.7-1.8-21c5.099-6.301,14.7-7.2,21-1.8L256,416.499L426.4,274.6c6.301-5.4,15.901-4.501,21,1.8
	C452.8,282.7,451.901,292.299,445.6,297.4z"/>
<path style="fill:#D4850F;" d="M388.9,233.5L271,439.9V298.299c17.401-6.299,30-22.8,30-42.299c0-24.901-20.099-45-45-45V60h60
	c8.401,0,15,6.599,15,15v5.099c0,50.7,19.799,99.401,55.499,135.399C391.3,220.3,392.5,227.5,388.9,233.5z"/>
<path style="fill:#BEC3D2;" d="M445.6,297.4l-180,150c-2.701,2.399-6.301,3.6-9.6,3.6v-34.501L426.4,274.6
	c6.301-5.4,15.901-4.501,21,1.8C452.8,282.7,451.901,292.299,445.6,297.4z"/>
<g>
</g>
<g>
</g>
<g>
</g>
<g>
</g>
<g>
</g>
<g>
</g>
<g>
</g>
<g>
</g>
<g>
</g>
<g>
</g>
<g>
</g>
<g>
</g>
<g>
</g>
<g>
</g>
<g>
</g>
</svg>
