<?xml version="1.0" encoding="iso-8859-1"?>
<!-- Generator: Adobe Illustrator 19.0.0, SVG Export Plug-In . SVG Version: 6.00 Build 0)  -->
<svg version="1.1" id="Capa_1" xmlns="http://www.w3.org/2000/svg" xmlns:xlink="http://www.w3.org/1999/xlink" x="0px" y="0px"
	 viewBox="0 0 512 512" style="enable-background:new 0 0 512 512;" xml:space="preserve">
<path style="fill:#9292FF;" d="M467,0H45C20.099,0,0,20.099,0,45v422c0,24.901,20.099,45,45,45h422c24.901,0,45-20.099,45-45V45
	C512,20.099,491.901,0,467,0z"/>
<path style="fill:#7A7AFC;" d="M512,45v422c0,24.901-20.099,45-45,45H256V0h211C491.901,0,512,20.099,512,45z"/>
<path style="fill:#1B2868;" d="M467,30H45c-8.401,0-15,6.599-15,15v422c0,8.401,6.599,15,15,15h422c8.401,0,15-6.599,15-15V45
	C482,36.599,475.401,30,467,30z"/>
<path style="fill:#12254C;" d="M482,45v422c0,8.401-6.599,15-15,15H256V30h211C475.401,30,482,36.599,482,45z"/>
<path style="fill:#7A7AFC;" d="M361,211c-11.492,0-22.132,3.409-31.263,9.031C327.428,214.724,322.161,211,316,211
	c-8.291,0-15,6.709-15,15c0,6.441,0,153.081,0,150c0,8.291,6.709,15,15,15s15-6.709,15-15V271c0-16.538,13.462-30,30-30
	s30,13.462,30,30v105c0,8.291,6.709,15,15,15s15-6.709,15-15V271C421,237.909,394.091,211,361,211z"/>
<path style="fill:#9292FF;" d="M271,376c0,8.399-6.599,15-15,15H106c-8.401,0-15-6.601-15-15c0,0,0-197.401,0-240
	c0-8.401,6.599-15,15-15h150c8.401,0,15,6.599,15,15c0,8.399-6.599,15-15,15H121v90h105c8.401,0,15,6.599,15,15
	c0,8.399-6.599,15-15,15H121v90h135C264.401,361,271,367.599,271,376z"/>
<g>
	<path style="fill:#7A7AFC;" d="M271,376c0,8.399-6.599,15-15,15v-30C264.401,361,271,367.599,271,376z"/>
	<path style="fill:#7A7AFC;" d="M256,151v-30c8.401,0,15,6.599,15,15C271,144.399,264.401,151,256,151z"/>
</g>
<g>
</g>
<g>
</g>
<g>
</g>
<g>
</g>
<g>
</g>
<g>
</g>
<g>
</g>
<g>
</g>
<g>
</g>
<g>
</g>
<g>
</g>
<g>
</g>
<g>
</g>
<g>
</g>
<g>
</g>
</svg>
