<?xml version="1.0" encoding="iso-8859-1"?>
<!-- Generator: Adobe Illustrator 19.0.0, SVG Export Plug-In . SVG Version: 6.00 Build 0)  -->
<svg version="1.1" id="Capa_1" xmlns="http://www.w3.org/2000/svg" xmlns:xlink="http://www.w3.org/1999/xlink" x="0px" y="0px"
	 viewBox="0 0 512 512" style="enable-background:new 0 0 512 512;" xml:space="preserve">
<path style="fill:#D261E8;" d="M467,0H45C20.099,0,0,20.099,0,45v422c0,24.901,20.099,45,45,45h422c24.901,0,45-20.099,45-45V45
	C512,20.099,491.901,0,467,0z"/>
<path style="fill:#BF4CD9;" d="M512,45v422c0,24.901-20.099,45-45,45H256V0h211C491.901,0,512,20.099,512,45z"/>
<path style="fill:#6D0039;" d="M467,30H45c-8.401,0-15,6.599-15,15v422c0,8.401,6.599,15,15,15h422c8.401,0,15-6.599,15-15V45
	C482,36.599,475.401,30,467,30z"/>
<path style="fill:#54002E;" d="M482,45v422c0,8.401-6.599,15-15,15H256V30h211C475.401,30,482,36.599,482,45z"/>
<path style="fill:#BF4CD9;" d="M421,121c-8.291,0-15,6.709-15,15v80.229c-9.543-3.38-19.616-5.229-30-5.229
	c-49.629,0-90,40.371-90,90s40.371,90,90,90c11.486,0,22.549-2.375,32.972-6.497C411.687,388.338,415.939,391,421,391
	c8.291,0,15-6.709,15-15V136C436,127.709,429.291,121,421,121z M316,301c0-33.091,26.909-60,60-60c10.789,0,20.848,3.464,30,8.846
	v102.308c-9.152,5.381-19.211,8.846-30,8.846C342.909,361,316,334.091,316,301z"/>
<path style="fill:#D261E8;" d="M268.599,367.899c4.501,7.2,2.401,16.501-4.499,20.7c-2.701,1.5-5.4,2.401-8.101,2.401
	c-5.099,0-9.901-2.401-12.599-6.899L181,284.2l-62.401,99.901c-4.199,6.899-13.5,9-20.7,4.499c-6.899-4.199-9-13.5-4.499-20.7
	L163.299,256L93.401,144.101c-4.501-7.2-2.401-16.501,4.499-20.7c7.2-4.501,16.501-2.401,20.7,4.499l62.4,99.9l62.401-99.901
	C246.1,123.4,250.901,121,256,121c2.701,0,5.4,0.901,8.101,2.401c6.899,4.199,9,13.5,4.499,20.7L256,164.2L198.701,256L256,347.8
	L268.599,367.899z"/>
<g>
	<path style="fill:#BF4CD9;" d="M268.599,367.899c4.501,7.2,2.401,16.501-4.499,20.7c-2.701,1.5-5.4,2.401-8.101,2.401v-43.2
		L268.599,367.899z"/>
	<path style="fill:#BF4CD9;" d="M268.599,144.101L256,164.2V121c2.701,0,5.4,0.901,8.101,2.401
		C271,127.599,273.1,136.901,268.599,144.101z"/>
</g>
<g>
</g>
<g>
</g>
<g>
</g>
<g>
</g>
<g>
</g>
<g>
</g>
<g>
</g>
<g>
</g>
<g>
</g>
<g>
</g>
<g>
</g>
<g>
</g>
<g>
</g>
<g>
</g>
<g>
</g>
</svg>
