<?xml version="1.0" encoding="iso-8859-1"?>
<!-- Generator: Adobe Illustrator 19.0.0, SVG Export Plug-In . SVG Version: 6.00 Build 0)  -->
<svg version="1.1" id="Capa_1" xmlns="http://www.w3.org/2000/svg" xmlns:xlink="http://www.w3.org/1999/xlink" x="0px" y="0px"
	 viewBox="0 0 512 512" style="enable-background:new 0 0 512 512;" xml:space="preserve">
<path style="fill:#FF468C;" d="M467,0H45C20.099,0,0,20.099,0,45v422c0,24.901,20.099,45,45,45h422c24.901,0,45-20.099,45-45V45
	C512,20.099,491.901,0,467,0z"/>
<path style="fill:#D72878;" d="M512,45v422c0,24.901-20.099,45-45,45H256V0h211C491.901,0,512,20.099,512,45z"/>
<path style="fill:#6D0039;" d="M467,30H45c-8.401,0-15,6.599-15,15v422c0,8.401,6.599,15,15,15h422c8.401,0,15-6.599,15-15V45
	C482,36.599,475.401,30,467,30z"/>
<path style="fill:#54002E;" d="M482,45v422c0,8.401-6.599,15-15,15H256V30h211C475.401,30,482,36.599,482,45z"/>
<g>
	<path style="fill:#FF468C;" d="M166,391c-8.291,0-15-6.709-15-15V136c0-8.291,6.709-15,15-15s15,6.709,15,15v240
		C181,384.291,174.291,391,166,391z"/>
	<path style="fill:#FF468C;" d="M346,121c-8.401,0-15,6.599-15,15v80.099c-9.6-3.3-19.501-5.099-30-5.099
		c-16.199,0-31.8,4.501-45,12.001c-26.7,15.599-45,44.7-45,77.999s18.3,62.401,45,77.999c13.2,7.5,28.801,12.001,45,12.001
		c11.4,0,22.5-2.401,32.999-6.599C336.7,388.299,340.901,391,346,391c8.401,0,15-6.599,15-15V136C361,127.599,354.401,121,346,121z
		 M331,352.301C321.7,357.4,311.8,361,301,361c-17.999,0-34.2-8.101-45-20.7c-9.6-10.499-15-24.3-15-39.3s5.4-28.801,15-39.3
		c10.8-12.599,27.001-20.7,45-20.7c10.8,0,20.7,3.6,30,8.699V352.301z"/>
</g>
<path style="fill:#D72878;" d="M361,136v240c0,8.401-6.599,15-15,15c-5.099,0-9.3-2.701-12.001-6.599
	C323.5,388.599,312.4,391,301,391c-16.199,0-31.8-4.501-45-12.001V340.3c10.8,12.599,27.001,20.7,45,20.7c10.8,0,20.7-3.6,30-8.699
	V249.699C321.7,244.6,311.8,241,301,241c-17.999,0-34.2,8.101-45,20.7v-38.699c13.2-7.5,28.801-12.001,45-12.001
	c10.499,0,20.4,1.8,30,5.099V136c0-8.401,6.599-15,15-15S361,127.599,361,136z"/>
<g>
</g>
<g>
</g>
<g>
</g>
<g>
</g>
<g>
</g>
<g>
</g>
<g>
</g>
<g>
</g>
<g>
</g>
<g>
</g>
<g>
</g>
<g>
</g>
<g>
</g>
<g>
</g>
<g>
</g>
</svg>
