<?xml version="1.0" encoding="iso-8859-1"?>
<!-- Generator: Adobe Illustrator 19.0.0, SVG Export Plug-In . SVG Version: 6.00 Build 0)  -->
<svg version="1.1" id="Capa_1" xmlns="http://www.w3.org/2000/svg" xmlns:xlink="http://www.w3.org/1999/xlink" x="0px" y="0px"
	 viewBox="0 0 512 512" style="enable-background:new 0 0 512 512;" xml:space="preserve">
<path style="fill:#FFDA45;" d="M467,0H45C20.099,0,0,20.099,0,45v422c0,24.901,20.099,45,45,45h422c24.901,0,45-20.099,45-45V45
	C512,20.099,491.901,0,467,0z"/>
<path style="fill:#FFBC36;" d="M512,45v422c0,24.901-20.099,45-45,45H256V0h211C491.901,0,512,20.099,512,45z"/>
<path style="fill:#414952;" d="M467,30H45c-8.401,0-15,6.599-15,15v422c0,8.401,6.599,15,15,15h422c8.401,0,15-6.599,15-15V45
	C482,36.599,475.401,30,467,30z"/>
<path style="fill:#333940;" d="M482,45v422c0,8.401-6.599,15-15,15H256V30h211C475.401,30,482,36.599,482,45z"/>
<path style="fill:#FFDA45;" d="M226,301H106c-8.291,0-15-6.709-15-15V106c0-8.291,6.709-15,15-15h120c8.291,0,15,6.709,15,15v180
	C241,294.291,234.291,301,226,301z M121,271h90V121h-90V271z"/>
<path style="fill:#FFE89C;" d="M448.299,397.299L256,122.5l-17.701-25.201C235.6,93.399,230.799,91,226,91H106
	c-5.7,0-10.8,2.999-13.2,8.099c-2.701,4.801-2.401,10.801,0.901,15.601L256,346.599l47.701,68.101c2.699,3.9,7.5,6.301,12.299,6.301
	h120c5.7,0,10.8-3.001,13.2-8.101C451.901,408.1,451.601,402.1,448.299,397.299z M323.8,391L256,294.099L134.801,121H218.2l37.8,54
	l151.199,216H323.8z"/>
<path style="fill:#FFEE6E;" d="M449.2,412.899c-2.4,5.1-7.5,8.101-13.2,8.101H316c-4.799,0-9.6-2.401-12.299-6.301L256,346.599
	v-52.5L323.8,391h83.399L256,175v-52.5l192.299,274.799C451.601,402.1,451.901,408.1,449.2,412.899z"/>
<path style="fill:#FFBC36;" d="M436,421H316c-8.291,0-15-6.709-15-15V226c0-8.291,6.709-15,15-15h120c8.291,0,15,6.709,15,15v180
	C451,414.291,444.291,421,436,421z M331,391h90V241h-90V391z"/>
<g>
</g>
<g>
</g>
<g>
</g>
<g>
</g>
<g>
</g>
<g>
</g>
<g>
</g>
<g>
</g>
<g>
</g>
<g>
</g>
<g>
</g>
<g>
</g>
<g>
</g>
<g>
</g>
<g>
</g>
</svg>
