<?xml version="1.0" encoding="iso-8859-1"?>
<!-- Generator: Adobe Illustrator 19.0.0, SVG Export Plug-In . SVG Version: 6.00 Build 0)  -->
<svg version="1.1" id="Capa_1" xmlns="http://www.w3.org/2000/svg" xmlns:xlink="http://www.w3.org/1999/xlink" x="0px" y="0px"
	 viewBox="0 0 512 512" style="enable-background:new 0 0 512 512;" xml:space="preserve">
<path style="fill:#A7E340;" d="M467,0H45C20.099,0,0,20.099,0,45v422c0,24.901,20.099,45,45,45h422c24.901,0,45-20.099,45-45V45
	C512,20.099,491.901,0,467,0z"/>
<path style="fill:#93D632;" d="M512,45v422c0,24.901-20.099,45-45,45H256V0h211C491.901,0,512,20.099,512,45z"/>
<path style="fill:#017365;" d="M467,30H45c-8.401,0-15,6.599-15,15v422c0,8.401,6.599,15,15,15h422c8.401,0,15-6.599,15-15V45
	C482,36.599,475.401,30,467,30z"/>
<path style="fill:#006357;" d="M482,45v422c0,8.401-6.599,15-15,15H256V30h211C475.401,30,482,36.599,482,45z"/>
<path style="fill:#A7E340;" d="M301,136c0,8.399-6.599,15-15,15h-90v225c0,8.399-6.599,15-15,15s-15-6.601-15-15V151H76
	c-8.401,0-15-6.601-15-15c0-8.401,6.599-15,15-15h210C294.401,121,301,127.599,301,136z"/>
<g>
	<path style="fill:#93D632;" d="M382.211,301l64.395-64.395c5.859-5.859,5.859-15.352,0-21.211s-15.352-5.859-21.211,0L361,279.789
		V136c0-8.291-6.709-15-15-15s-15,6.709-15,15v240c0,8.291,6.709,15,15,15s15-6.709,15-15v-53.789l64.395,64.395
		c5.859,5.859,15.351,5.86,21.211,0c5.859-5.859,5.859-15.352,0-21.211L382.211,301z"/>
	<path style="fill:#93D632;" d="M301,136c0,8.399-6.599,15-15,15h-30v-30h30C294.401,121,301,127.599,301,136z"/>
</g>
<g>
</g>
<g>
</g>
<g>
</g>
<g>
</g>
<g>
</g>
<g>
</g>
<g>
</g>
<g>
</g>
<g>
</g>
<g>
</g>
<g>
</g>
<g>
</g>
<g>
</g>
<g>
</g>
<g>
</g>
</svg>
