<?xml version="1.0" encoding="iso-8859-1"?>
<!-- Generator: Adobe Illustrator 19.0.0, SVG Export Plug-In . SVG Version: 6.00 Build 0)  -->
<svg version="1.1" id="Capa_1" xmlns="http://www.w3.org/2000/svg" xmlns:xlink="http://www.w3.org/1999/xlink" x="0px" y="0px"
	 viewBox="0 0 512 512" style="enable-background:new 0 0 512 512;" xml:space="preserve">
<path style="fill:#EBCCFF;" d="M512,45c0-24.901-20.099-45-45-45H45C20.099,0,0,20.099,0,45v422c0,24.901,20.099,45,45,45h422
	c24.901,0,45-20.099,45-45V45z"/>
<path style="fill:#E0B8FF;" d="M512,45v422c0,24.901-20.099,45-45,45H256V0h211C491.901,0,512,20.099,512,45z"/>
<path style="fill:#5A2263;" d="M482,45c0-8.401-6.599-15-15-15H45c-8.401,0-15,6.599-15,15v422c0,8.401,6.599,15,15,15h422
	c8.401,0,15-6.599,15-15V45z"/>
<path style="fill:#2C0652;" d="M482,45v422c0,8.401-6.599,15-15,15H256V30h211C475.401,30,482,36.599,482,45z"/>
<path style="fill:#EBCCFF;" d="M432.1,175.899L256,74.2l-18.6-10.801C215.799,51.1,188.2,58.3,175.9,79.9L63.4,274.6
	c-12.601,21.599-5.101,49.2,16.5,61.5L256,437.8l18.6,10.8c21.899,12.599,49.2,5.099,61.5-16.5l112.5-194.7
	C461.201,215.799,453.701,188.2,432.1,175.899z"/>
<path style="fill:#E0B8FF;" d="M448.599,237.4l-112.5,194.7c-12.299,21.599-39.6,29.099-61.5,16.5L256,437.8V74.2l176.1,101.699
	C453.701,188.2,461.201,215.799,448.599,237.4z"/>
<path style="fill:#5A2263;" d="M417.1,201.7L256,108.699L222.4,89.2c-7.2-3.9-16.5-1.5-20.7,5.7L89.2,289.6
	c-1.199,2.401-1.8,4.799-1.8,7.5c0,5.099,2.699,10.499,7.5,13.2L256,403.299l33.6,19.501c7.2,3.9,16.5,1.5,20.7-5.7l112.5-194.7
	C426.7,215.2,424.3,205.899,417.1,201.7z"/>
<path style="fill:#2C0652;" d="M422.8,222.4L310.3,417.1c-4.2,7.2-13.5,9.6-20.7,5.7L256,403.299v-294.6L417.1,201.7
	C424.3,205.899,426.7,215.2,422.8,222.4z"/>
<path style="fill:#DE78F0;" d="M256,151c-57.9,0-105,47.1-105,105s47.1,105,105,105s105-47.1,105-105S313.9,151,256,151z"/>
<path style="fill:#5A2263;" d="M294.401,243.399L256,217.899l-6.599-4.501c-4.801-2.999-10.501-3.3-15.601-0.599
	c-4.801,2.699-7.8,7.8-7.8,13.2v60c0,5.4,2.999,10.499,7.8,13.2c2.401,1.199,4.799,1.8,7.2,1.8c2.999,0,5.7-0.901,8.401-2.401
	l6.599-4.501l38.401-25.499C298.599,265.6,301,261.099,301,256C301,250.899,298.599,246.4,294.401,243.399z"/>
<path style="fill:#BF4CD9;" d="M361,256c0,57.9-47.1,105-105,105V151C313.9,151,361,198.1,361,256z"/>
<path style="fill:#2C0652;" d="M301,256c0,5.099-2.401,9.6-6.599,12.599L256,294.099V217.9l38.401,25.499
	C298.599,246.4,301,250.899,301,256z"/>
<g>
</g>
<g>
</g>
<g>
</g>
<g>
</g>
<g>
</g>
<g>
</g>
<g>
</g>
<g>
</g>
<g>
</g>
<g>
</g>
<g>
</g>
<g>
</g>
<g>
</g>
<g>
</g>
<g>
</g>
</svg>
