<?xml version="1.0" encoding="iso-8859-1"?>
<!-- Generator: Adobe Illustrator 19.0.0, SVG Export Plug-In . SVG Version: 6.00 Build 0)  -->
<svg version="1.1" id="Capa_1" xmlns="http://www.w3.org/2000/svg" xmlns:xlink="http://www.w3.org/1999/xlink" x="0px" y="0px"
	 viewBox="0 0 512 512" style="enable-background:new 0 0 512 512;" xml:space="preserve">
<path style="fill:#1EA1E3;" d="M467,0H45C20.099,0,0,20.099,0,45v422c0,24.901,20.099,45,45,45h422c24.901,0,45-20.099,45-45V45
	C512,20.099,491.901,0,467,0z"/>
<path style="fill:#368DCF;" d="M512,45v422c0,24.901-20.099,45-45,45H256V0h211C491.901,0,512,20.099,512,45z"/>
<path style="fill:#CDEBFC;" d="M467,30H45c-8.401,0-15,6.599-15,15v422c0,8.401,6.599,15,15,15h422c8.401,0,15-6.599,15-15V45
	C482,36.599,475.401,30,467,30z"/>
<path style="fill:#BFE1FF;" d="M482,45v422c0,8.401-6.599,15-15,15H256V30h211C475.401,30,482,36.599,482,45z"/>
<path style="fill:#1EA1E3;" d="M271,136c0,8.399-6.599,15-15,15H151v90h75c8.401,0,15,6.599,15,15c0,8.399-6.599,15-15,15h-75v105
	c0,8.399-6.599,15-15,15s-15-6.601-15-15c0,0,0-197.401,0-240c0-8.401,6.599-15,15-15h120C264.401,121,271,127.599,271,136z"/>
<g>
	<path style="fill:#368DCF;" d="M346,391c-41.353,0-75-40.371-75-90s33.647-90,75-90s75,40.371,75,90c0,8.291-6.709,15-15,15
		H302.421c5.01,25.854,22.646,45,43.579,45c11.646,0,20.42-5.947,25.737-10.942c6.064-5.654,15.557-5.361,21.211,0.674
		c5.669,6.05,5.361,15.542-0.674,21.211C378.988,384.408,362.992,391,346,391z M302.421,286h87.158
		c-5.01-25.854-22.646-45-43.579-45S307.431,260.146,302.421,286z"/>
	<path style="fill:#368DCF;" d="M271,136c0,8.399-6.599,15-15,15v-30C264.401,121,271,127.599,271,136z"/>
</g>
<g>
</g>
<g>
</g>
<g>
</g>
<g>
</g>
<g>
</g>
<g>
</g>
<g>
</g>
<g>
</g>
<g>
</g>
<g>
</g>
<g>
</g>
<g>
</g>
<g>
</g>
<g>
</g>
<g>
</g>
</svg>
