<?xml version="1.0" encoding="iso-8859-1"?>
<!-- Generator: Adobe Illustrator 19.0.0, SVG Export Plug-In . SVG Version: 6.00 Build 0)  -->
<svg version="1.1" id="Capa_1" xmlns="http://www.w3.org/2000/svg" xmlns:xlink="http://www.w3.org/1999/xlink" x="0px" y="0px"
	 viewBox="0 0 512 512" style="enable-background:new 0 0 512 512;" xml:space="preserve">
<path style="fill:#414952;" d="M467,0H45C20.099,0,0,20.099,0,45v422c0,24.901,20.099,45,45,45h422c24.901,0,45-20.099,45-45V45
	C512,20.099,491.901,0,467,0z"/>
<path style="fill:#333940;" d="M512,45v422c0,24.901-20.099,45-45,45H256V0h211C491.901,0,512,20.099,512,45z"/>
<path style="fill:#BEC3D2;" d="M467,30H45c-8.401,0-15,6.599-15,15v422c0,8.401,6.599,15,15,15h422c8.401,0,15-6.599,15-15V45
	C482,36.599,475.401,30,467,30z"/>
<path style="fill:#9196AA;" d="M482,45v422c0,8.401-6.599,15-15,15H256V30h211C475.401,30,482,36.599,482,45z"/>
<g>
	<polygon style="fill:#414952;" points="271,256 256,278.5 228.999,318.999 187,256 228.999,192.999 	"/>
	<path style="fill:#414952;" d="M448.599,159.399L387.1,241l-55.499-83.401c-3.001-4.2-7.5-6.599-12.601-6.599h-75l12-18.001
		l43.5-65.4c3-4.2,7.5-6.599,12.6-6.599h88.801c5.099,0,9.899,2.399,12.599,6.599l35.099,75
		C451.901,147.7,451.901,154.3,448.599,159.399z"/>
</g>
<g>
	<polygon style="fill:#333940;" points="351.002,271 297.06,271 257.061,331 311.006,331 	"/>
	<polygon style="fill:#333940;" points="257.061,181 297.06,241 351.002,241 311.006,181 	"/>
</g>
<g>
	<path style="fill:#414952;" d="M448.599,369.399l-35.099,75c-2.701,4.2-7.5,6.601-12.599,6.601H312.1
		c-5.099,0-9.6-2.401-12.599-6.601l-43.5-65.4L243.999,361h75c5.101,0,9.6-2.401,12.601-6.601L387.1,271l61.5,81.599
		C451.901,357.7,451.901,364.3,448.599,369.399z"/>
	<path style="fill:#414952;" d="M156.553,264.32c-3.354-5.039-3.354-11.602,0-16.641L211.006,166h-85.012
		c-5.015,0-9.699,2.507-12.48,6.68l-49.995,75c-3.358,5.037-3.358,11.602,0,16.641l49.995,75c2.781,4.173,7.465,6.68,12.48,6.68
		h85.012L156.553,264.32z"/>
</g>
<g>
	<polygon style="fill:#333940;" points="271,256 256,278.5 256,233.5 	"/>
	<path style="fill:#333940;" d="M448.599,352.599c3.301,5.101,3.301,11.7,0,16.8l-35.099,75c-2.701,4.2-7.5,6.601-12.599,6.601
		H312.1c-5.099,0-9.6-2.401-12.599-6.601l-43.5-65.4V361H319c5.101,0,9.6-2.401,12.601-6.601L387.1,271L448.599,352.599z"/>
	<path style="fill:#333940;" d="M318.999,151H256v-18.001l43.5-65.4c3-4.2,7.5-6.599,12.6-6.599h88.801
		c5.099,0,9.899,2.399,12.599,6.599l35.099,75c3.301,5.101,3.301,11.7,0,16.8L387.1,241l-55.499-83.401
		C328.599,153.399,324.101,151,318.999,151z"/>
</g>
<g>
</g>
<g>
</g>
<g>
</g>
<g>
</g>
<g>
</g>
<g>
</g>
<g>
</g>
<g>
</g>
<g>
</g>
<g>
</g>
<g>
</g>
<g>
</g>
<g>
</g>
<g>
</g>
<g>
</g>
</svg>
