<?xml version="1.0" encoding="iso-8859-1"?>
<!-- Generator: Adobe Illustrator 19.0.0, SVG Export Plug-In . SVG Version: 6.00 Build 0)  -->
<svg version="1.1" id="Capa_1" xmlns="http://www.w3.org/2000/svg" xmlns:xlink="http://www.w3.org/1999/xlink" x="0px" y="0px"
	 viewBox="0 0 512 512" style="enable-background:new 0 0 512 512;" xml:space="preserve">
<path style="fill:#414952;" d="M467,0H45C20.099,0,0,20.099,0,45v422c0,24.901,20.099,45,45,45h422c24.901,0,45-20.099,45-45V45
	C512,20.099,491.901,0,467,0z"/>
<path style="fill:#333940;" d="M512,45v422c0,24.901-20.099,45-45,45H256V0h211C491.901,0,512,20.099,512,45z"/>
<path style="fill:#BEC3D2;" d="M467,30H45c-8.401,0-15,6.599-15,15v422c0,8.401,6.599,15,15,15h422c8.401,0,15-6.599,15-15V45
	C482,36.599,475.401,30,467,30z"/>
<path style="fill:#9196AA;" d="M482,45v422c0,8.401-6.599,15-15,15H256V30h211C475.401,30,482,36.599,482,45z"/>
<path style="fill:#636978;" d="M421,166l-24.3,30H115.3L91,166l55.499-55.501C149.5,107.5,153.1,106,157.301,106H354.7
	c4.2,0,7.8,1.5,10.801,4.499L421,166z"/>
<g>
	<path style="fill:#414952;" d="M421,166l-24.3,30H256v-90h98.699c4.2,0,7.8,1.5,10.801,4.499L421,166z"/>
	<path style="fill:#414952;" d="M421,166v225c0,8.399-6.599,15-15,15H106c-8.401,0-15-6.601-15-15V166H421z"/>
</g>
<path style="fill:#333940;" d="M421,166v225c0,8.399-6.599,15-15,15H256V166H421z"/>
<g>
</g>
<g>
</g>
<g>
</g>
<g>
</g>
<g>
</g>
<g>
</g>
<g>
</g>
<g>
</g>
<g>
</g>
<g>
</g>
<g>
</g>
<g>
</g>
<g>
</g>
<g>
</g>
<g>
</g>
</svg>
