<?xml version="1.0" encoding="iso-8859-1"?>
<!-- Generator: Adobe Illustrator 19.0.0, SVG Export Plug-In . SVG Version: 6.00 Build 0)  -->
<svg version="1.1" id="Capa_1" xmlns="http://www.w3.org/2000/svg" xmlns:xlink="http://www.w3.org/1999/xlink" x="0px" y="0px"
	 viewBox="0 0 512 512" style="enable-background:new 0 0 512 512;" xml:space="preserve">
<path style="fill:#FF468C;" d="M467,0H45C20.099,0,0,20.099,0,45v422c0,24.901,20.099,45,45,45h422c24.901,0,45-20.099,45-45V45
	C512,20.099,491.901,0,467,0z"/>
<path style="fill:#D72878;" d="M512,45v422c0,24.901-20.099,45-45,45H256V0h211C491.901,0,512,20.099,512,45z"/>
<path style="fill:#700029;" d="M467,30H45c-8.401,0-15,6.599-15,15v422c0,8.401,6.599,15,15,15h422c8.401,0,15-6.599,15-15V45
	C482,36.599,475.401,30,467,30z"/>
<path style="fill:#4D0E06;" d="M482,45v422c0,8.401-6.599,15-15,15H256V30h211C475.401,30,482,36.599,482,45z"/>
<path style="fill:#FF468C;" d="M181,391c-41.353,0-75-33.647-75-75c0-8.291,6.709-15,15-15s15,6.709,15,15c0,24.814,20.186,45,45,45
	s45-20.186,45-45s-20.186-45-45-45c-41.353,0-75-33.647-75-75s33.647-75,75-75s75,33.647,75,75c0,8.291-6.709,15-15,15
	s-15-6.709-15-15c0-24.814-20.186-45-45-45s-45,20.186-45,45s20.186,45,45,45c41.353,0,75,33.647,75,75S222.353,391,181,391z"/>
<path style="fill:#D72878;" d="M391,361h-30c-8.276,0-15-6.724-15-15V211h45c8.291,0,15-6.709,15-15s-6.709-15-15-15h-45v-45
	c0-8.291-6.709-15-15-15s-15,6.709-15,15v45h-15c-8.291,0-15,6.709-15,15s6.709,15,15,15h15v135c0,24.814,20.186,45,45,45h30
	c8.291,0,15-6.709,15-15S399.291,361,391,361z"/>
<g>
</g>
<g>
</g>
<g>
</g>
<g>
</g>
<g>
</g>
<g>
</g>
<g>
</g>
<g>
</g>
<g>
</g>
<g>
</g>
<g>
</g>
<g>
</g>
<g>
</g>
<g>
</g>
<g>
</g>
</svg>
