<?xml version="1.0" encoding="iso-8859-1"?>
<!-- Generator: Adobe Illustrator 19.0.0, SVG Export Plug-In . SVG Version: 6.00 Build 0)  -->
<svg version="1.1" id="Capa_1" xmlns="http://www.w3.org/2000/svg" xmlns:xlink="http://www.w3.org/1999/xlink" x="0px" y="0px"
	 viewBox="0 0 512 512" style="enable-background:new 0 0 512 512;" xml:space="preserve">
<path style="fill:#E8C917;" d="M467,0H45C20.099,0,0,20.099,0,45v422c0,24.901,20.099,45,45,45h422c24.901,0,45-20.099,45-45V45
	C512,20.099,491.901,0,467,0z"/>
<path style="fill:#CC9D02;" d="M512,45v422c0,24.901-20.099,45-45,45H256V0h211C491.901,0,512,20.099,512,45z"/>
<path style="fill:#704021;" d="M467,30H45c-8.401,0-15,6.599-15,15v422c0,8.401,6.599,15,15,15h422c8.401,0,15-6.599,15-15V45
	C482,36.599,475.401,30,467,30z"/>
<path style="fill:#5E331A;" d="M482,45v422c0,8.401-6.599,15-15,15H256V30h211C475.401,30,482,36.599,482,45z"/>
<path style="fill:#CC9D02;" d="M406,211c-16.948,0-32.426,5.865-45,15.383V226c0-8.291-6.709-15-15-15s-15,6.709-15,15v150
	c0,8.291,6.709,15,15,15s15-6.709,15-15v-90c0-24.814,20.186-45,45-45c8.291,0,15-6.709,15-15S414.291,211,406,211z"/>
<path style="fill:#E8C917;" d="M256,247.899c-1.5-0.899-2.999-1.5-4.501-2.1c1.501-1.8,3.001-3.6,4.501-5.4
	C265.3,228.1,271,212.8,271,196s-5.4-32.401-15-44.7c-13.5-18.301-35.4-30.3-60-30.3h-60c-8.401,0-15,6.599-15,15v240
	c0,8.399,6.599,15,15,15h90c10.499,0,20.7-2.1,30-6.301c26.4-11.4,45-37.8,45-68.699C301,285.399,282.4,259.3,256,247.899z M151,151
	h45c24.901,0,45,20.099,45,45c0,24.899-20.099,45-45,45h-45V151z M256,349.3c-7.8,7.2-18.3,11.7-30,11.7h-75v-90h75
	c11.7,0,22.2,4.499,30,11.7c9.3,8.099,15,20.099,15,33.3S265.3,341.199,256,349.3z"/>
<g>
	<path style="fill:#CC9D02;" d="M271,196c0,16.8-5.7,32.1-15,44.399V151.3C265.6,163.599,271,179.2,271,196z"/>
	<path style="fill:#CC9D02;" d="M301,316c0,30.899-18.6,57.299-45,68.699v-35.4c9.3-8.101,15-20.099,15-33.3s-5.7-25.201-15-33.3
		v-34.801C282.4,259.3,301,285.399,301,316z"/>
</g>
<g>
</g>
<g>
</g>
<g>
</g>
<g>
</g>
<g>
</g>
<g>
</g>
<g>
</g>
<g>
</g>
<g>
</g>
<g>
</g>
<g>
</g>
<g>
</g>
<g>
</g>
<g>
</g>
<g>
</g>
</svg>
