<?xml version="1.0" encoding="iso-8859-1"?>
<!-- Generator: Adobe Illustrator 19.0.0, SVG Export Plug-In . SVG Version: 6.00 Build 0)  -->
<svg version="1.1" id="Capa_1" xmlns="http://www.w3.org/2000/svg" xmlns:xlink="http://www.w3.org/1999/xlink" x="0px" y="0px"
	 viewBox="0 0 512 512" style="enable-background:new 0 0 512 512;" xml:space="preserve">
<path style="fill:#95E8C8;" d="M467,0H45C20.099,0,0,20.099,0,45v422c0,24.901,20.099,45,45,45h422c24.901,0,45-20.099,45-45V45
	C512,20.099,491.901,0,467,0z"/>
<path style="fill:#06CCAB;" d="M512,45v422c0,24.901-20.099,45-45,45H256V0h211C491.901,0,512,20.099,512,45z"/>
<path style="fill:#006F77;" d="M467,30H45c-8.401,0-15,6.599-15,15v422c0,8.401,6.599,15,15,15h422c8.401,0,15-6.599,15-15V45
	C482,36.599,475.401,30,467,30z"/>
<path style="fill:#0F5A64;" d="M482,45v422c0,8.401-6.599,15-15,15H256V30h211C475.401,30,482,36.599,482,45z"/>
<path style="fill:#95E8C8;" d="M285.099,370.6L256,292.899L195.099,130.6c-4.499-11.7-23.699-11.7-28.198,0l-90,240
	c-2.701,7.8,1.199,16.5,8.699,19.499c7.8,2.701,16.5-1.199,19.499-8.699l30-80.4h91.802L256,378.999l0.901,2.401
	c2.999,7.5,11.398,11.7,19.499,8.699C283.9,387.1,287.8,378.401,285.099,370.6z M146.499,271L181,178.599L215.501,271H146.499z"/>
<g>
	<path style="fill:#06CCAB;" d="M421,211c-8.291,0-15,6.709-15,15v105c0,16.538-13.462,30-30,30s-30-13.462-30-30V226
		c0-8.291-6.709-15-15-15s-15,6.709-15,15v105c0,33.091,26.909,60,60,60c11.492,0,22.132-3.409,31.263-9.031
		C409.572,387.276,414.839,391,421,391c8.291,0,15-6.709,15-15c0-6.441,0-153.081,0-150C436,217.709,429.291,211,421,211z"/>
	<path style="fill:#06CCAB;" d="M276.4,390.099c-8.101,3.001-16.5-1.199-19.499-8.699L256,378.999v-86.1l29.099,77.701
		C287.8,378.401,283.9,387.1,276.4,390.099z"/>
</g>
<g>
</g>
<g>
</g>
<g>
</g>
<g>
</g>
<g>
</g>
<g>
</g>
<g>
</g>
<g>
</g>
<g>
</g>
<g>
</g>
<g>
</g>
<g>
</g>
<g>
</g>
<g>
</g>
<g>
</g>
</svg>
