<?xml version="1.0" encoding="iso-8859-1"?>
<!-- Generator: Adobe Illustrator 19.0.0, SVG Export Plug-In . SVG Version: 6.00 Build 0)  -->
<svg version="1.1" id="Capa_1" xmlns="http://www.w3.org/2000/svg" xmlns:xlink="http://www.w3.org/1999/xlink" x="0px" y="0px"
	 viewBox="0 0 512 512" style="enable-background:new 0 0 512 512;" xml:space="preserve">
<path style="fill:#FFA426;" d="M467,0H45C20.099,0,0,20.099,0,45v422c0,24.901,20.099,45,45,45h422c24.901,0,45-20.099,45-45V45
	C512,20.099,491.901,0,467,0z"/>
<path style="fill:#D4850F;" d="M512,45v422c0,24.901-20.099,45-45,45H256V0h211C491.901,0,512,20.099,512,45z"/>
<path style="fill:#704639;" d="M467,30H45c-8.401,0-15,6.599-15,15v422c0,8.401,6.599,15,15,15h422c8.401,0,15-6.599,15-15V45
	C482,36.599,475.401,30,467,30z"/>
<path style="fill:#5E382C;" d="M482,45v422c0,8.401-6.599,15-15,15H256V30h211C475.401,30,482,36.599,482,45z"/>
<path style="fill:#D4850F;" d="M376,391c-8.291,0-15-6.709-15-15V256c0-8.291,6.709-15,15-15s15,6.709,15,15v120
	C391,384.291,384.291,391,376,391z"/>
<path style="fill:#FFA426;" d="M330.099,370.6L256,172.899L240.099,130.6c-4.499-11.7-23.699-11.7-28.198,0l-90,240
	c-2.701,7.8,1.199,16.5,8.699,19.499c7.8,2.701,16.5-1.199,19.499-8.699l41.4-110.4H260.5l41.4,110.4
	c2.999,7.5,11.398,11.7,19.499,8.699C328.9,387.1,332.8,378.401,330.099,370.6z M202.599,241L226,178.599L249.401,241H202.599z"/>
<g>
	<circle style="fill:#D4850F;" cx="376" cy="196" r="15"/>
	<path style="fill:#D4850F;" d="M321.4,390.099c-8.101,3.001-16.5-1.199-19.499-8.699l-41.4-110.4H256v-98.101L330.099,370.6
		C332.8,378.401,328.9,387.1,321.4,390.099z"/>
</g>
<g>
</g>
<g>
</g>
<g>
</g>
<g>
</g>
<g>
</g>
<g>
</g>
<g>
</g>
<g>
</g>
<g>
</g>
<g>
</g>
<g>
</g>
<g>
</g>
<g>
</g>
<g>
</g>
<g>
</g>
</svg>
