<?xml version="1.0" encoding="iso-8859-1"?>
<!-- Generator: Adobe Illustrator 19.0.0, SVG Export Plug-In . SVG Version: 6.00 Build 0)  -->
<svg version="1.1" id="Capa_1" xmlns="http://www.w3.org/2000/svg" xmlns:xlink="http://www.w3.org/1999/xlink" x="0px" y="0px"
	 viewBox="0 0 512 512" style="enable-background:new 0 0 512 512;" xml:space="preserve">
<path style="fill:#19CFFC;" d="M467,0H45C20.099,0,0,20.099,0,45v422c0,24.901,20.099,45,45,45h422c24.901,0,45-20.099,45-45V45
	C512,20.099,491.901,0,467,0z"/>
<path style="fill:#1EA1E3;" d="M512,45v422c0,24.901-20.099,45-45,45H256V0h211C491.901,0,512,20.099,512,45z"/>
<path style="fill:#053791;" d="M467,30H45c-8.401,0-15,6.599-15,15v422c0,8.401,6.599,15,15,15h422c8.401,0,15-6.599,15-15V45
	C482,36.599,475.401,30,467,30z"/>
<path style="fill:#1B2868;" d="M482,45v422c0,8.401-6.599,15-15,15H256V30h211C475.401,30,482,36.599,482,45z"/>
<path d="M256,451c-107.52,0-195-87.48-195-195S148.48,61,256,61s195,87.48,195,195S363.52,451,256,451z M256,91
	c-90.981,0-165,74.019-165,165s74.019,165,165,165s165-74.019,165-165S346.981,91,256,91z"/>
<path style="fill:#19CFFC;" d="M256,61C148.599,61,61,148.599,61,256c0,107.399,87.599,195,195,195s195-87.601,195-195
	C451,148.599,363.401,61,256,61z"/>
<path style="fill:#1EA1E3;" d="M451,256c0,107.399-87.599,195-195,195V61C363.401,61,451,148.599,451,256z"/>
<path style="fill:#053791;" d="M256,91c-90.901,0-165,74.099-165,165c0,90.899,74.099,165,165,165s165-74.101,165-165
	C421,165.099,346.901,91,256,91z"/>
<path style="fill:#1B2868;" d="M421,256c0,90.899-74.099,165-165,165V91C346.901,91,421,165.099,421,256z"/>
<path style="fill:#BFE1FF;" d="M361,256c0,8.399-6.599,15-15,15h-75v75c0,8.399-6.599,15-15,15s-15-6.601-15-15v-75h-75
	c-8.401,0-15-6.601-15-15c0-8.401,6.599-15,15-15h75v-75c0-8.401,6.599-15,15-15s15,6.599,15,15v75h75
	C354.401,241,361,247.599,361,256z"/>
<path style="fill:#9BC5FF;" d="M361,256c0,8.399-6.599,15-15,15h-75v75c0,8.399-6.599,15-15,15V151c8.401,0,15,6.599,15,15v75h75
	C354.401,241,361,247.599,361,256z"/>
<g>
</g>
<g>
</g>
<g>
</g>
<g>
</g>
<g>
</g>
<g>
</g>
<g>
</g>
<g>
</g>
<g>
</g>
<g>
</g>
<g>
</g>
<g>
</g>
<g>
</g>
<g>
</g>
<g>
</g>
</svg>
