<?xml version="1.0" encoding="iso-8859-1"?>
<!-- Generator: Adobe Illustrator 19.0.0, SVG Export Plug-In . SVG Version: 6.00 Build 0)  -->
<svg version="1.1" id="Capa_1" xmlns="http://www.w3.org/2000/svg" xmlns:xlink="http://www.w3.org/1999/xlink" x="0px" y="0px"
	 viewBox="0 0 512 512" style="enable-background:new 0 0 512 512;" xml:space="preserve">
<path style="fill:#A10000;" d="M467,0H45C20.099,0,0,20.099,0,45v422c0,24.901,20.099,45,45,45h422c24.901,0,45-20.099,45-45V45
	C512,20.099,491.901,0,467,0z"/>
<path style="fill:#82090B;" d="M512,45v422c0,24.901-20.099,45-45,45H256V0h211C491.901,0,512,20.099,512,45z"/>
<path style="fill:#D1093A;" d="M467,30H45c-8.401,0-15,6.599-15,15v422c0,8.401,6.599,15,15,15h422c8.401,0,15-6.599,15-15V45
	C482,36.599,475.401,30,467,30z"/>
<path style="fill:#BD002F;" d="M482,45v422c0,8.401-6.599,15-15,15H256V30h211C475.401,30,482,36.599,482,45z"/>
<path style="fill:#E4E4E4;" d="M221.43,195.824c-5.786-39.346-6.826-46.436-14.839-59.868
	c-21.533-36.182-69.287-48.677-106.362-27.832c-37.735,21.132-48.604,78.501-28.652,104.385
	c27.976,36.294,101.807,91.025,141.899,116.03c0.756,1.097,6.337,4.438,14.473,6.372c8.621-1.223,14.53-9.557,12.51-18.237
	C230.424,256.938,224.975,219.862,221.43,195.824z"/>
<ellipse style="fill:#D1093A;" cx="136" cy="171.07" rx="30" ry="29.12"/>
<g>
	<path style="fill:#E4E4E4;" d="M373.001,76C352.599,76,349.9,79.3,256,114.699c-17.401,6.899-37.8,14.399-61.8,23.401
		c-5.7,2.1-9.6,7.798-9.6,14.099c-0.3,6.301,3.6,11.7,9.6,14.101c24,9,44.399,16.5,61.8,23.099c92.401,35.101,96.599,39,117.001,39
		c42.9,0,77.999-34.199,77.999-76.199S415.901,76,373.001,76z"/>
	<path style="fill:#E4E4E4;" d="M370,201.099c-5.4-3.3-11.999-2.701-16.8,1.199l-97.2,75.3L223.599,302.8
		c-6,5.4-11.4,11.7-15.599,18.6c-21.3,36.3-9.001,83.1,28.8,104.399c6.301,3.6,12.601,6,19.2,7.8c33.3,8.401,69.3-5.4,87.299-35.7
		c4.801-8.101,8.101-17.401,9.6-26.7l24.3-154.799C378.1,210.099,375.399,204.099,370,201.099z"/>
</g>
<path style="fill:#BEC3D2;" d="M370,201.099c-5.4-3.3-11.999-2.701-16.8,1.199l-97.2,75.3v156c33.3,8.401,69.3-5.4,87.299-35.7
	c4.801-8.101,8.101-17.401,9.6-26.7l24.3-154.799C378.1,210.099,375.399,204.099,370,201.099z"/>
<path style="fill:#E4E4E4;" d="M277,389.348c-16.802,0-30-12.598-30-28.799s13.198-29.399,30-29.399c16.798,0,30,13.198,30,29.399
	S293.798,389.348,277,389.348z"/>
<g>
	<path style="fill:#D1093A;" d="M277,389.348c-16.802,0-30-12.598-30-28.799s13.198-29.399,30-29.399c16.798,0,30,13.198,30,29.399
		S293.798,389.348,277,389.348z"/>
	<path style="fill:#D1093A;" d="M277,331.15c-8.269,0-15.621,3.248-21,8.425v41.642c5.38,5.03,12.731,8.132,21,8.132
		c16.798,0,30-12.598,30-28.799S293.798,331.15,277,331.15z"/>
</g>
<path style="fill:#BEC3D2;" d="M373.001,76C352.599,76,349.9,79.3,256,114.699v74.7c92.401,35.101,96.599,39,117.001,39
	c42.9,0,77.999-34.199,77.999-76.199S415.901,76,373.001,76z"/>
<path id="SVGCleanerId_0" style="fill:#D1093A;" d="M371.499,181.148c-16.798,0-30-12.598-30-28.799s13.202-29.399,30-29.399
	c16.802,0,30,13.198,30,29.399S388.301,181.148,371.499,181.148z"/>
<g>
	<path id="SVGCleanerId_0_1_" style="fill:#D1093A;" d="M371.499,181.148c-16.798,0-30-12.598-30-28.799s13.202-29.399,30-29.399
		c16.802,0,30,13.198,30,29.399S388.301,181.148,371.499,181.148z"/>
</g>
<g>
</g>
<g>
</g>
<g>
</g>
<g>
</g>
<g>
</g>
<g>
</g>
<g>
</g>
<g>
</g>
<g>
</g>
<g>
</g>
<g>
</g>
<g>
</g>
<g>
</g>
<g>
</g>
<g>
</g>
</svg>
