<?xml version="1.0" encoding="iso-8859-1"?>
<!-- Generator: Adobe Illustrator 19.0.0, SVG Export Plug-In . SVG Version: 6.00 Build 0)  -->
<svg version="1.1" id="Capa_1" xmlns="http://www.w3.org/2000/svg" xmlns:xlink="http://www.w3.org/1999/xlink" x="0px" y="0px"
	 viewBox="0 0 512 512" style="enable-background:new 0 0 512 512;" xml:space="preserve">
<path style="fill:#414952;" d="M512,45c0-24.901-20.099-45-45-45H45C20.099,0,0,20.099,0,45v422c0,24.901,20.099,45,45,45h422
	c24.901,0,45-20.099,45-45V45z"/>
<path style="fill:#333940;" d="M467,0c24.901,0,45,20.099,45,45v422c0,24.901-20.099,45-45,45H256V0H467z"/>
<path style="fill:#BEC3D2;" d="M482,45c0-8.401-6.599-15-15-15H45c-8.401,0-15,6.599-15,15v422c0,8.401,6.599,15,15,15h422
	c8.401,0,15-6.599,15-15V45z"/>
<path style="fill:#9196AA;" d="M467,30c8.401,0,15,6.599,15,15v422c0,8.401-6.599,15-15,15H256V30H467z"/>
<path style="fill:#333940;" d="M319.6,383.2L256,446.8c-11.7,11.7-30.601,11.7-42.299,0l-31.8-31.8c-6-5.7-6-15.3,0-21L256,319.6
	L319.6,383.2z"/>
<polygon style="fill:#23272B;" points="319.6,383.2 256,446.8 256,319.6 "/>
<path style="fill:#414952;" d="M393.999,309.099L256,446.8c11.7-11.4,11.7-30.601,0-42.299L107.5,256
	c-11.7-11.7-11.7-30.901,0-42.301c11.7-11.699,30.901-11.699,42.301,0L256,126.7l10.499-8.701l127.5,127.5
	C411.4,262.899,411.4,291.4,393.999,309.099z"/>
<path style="fill:#333940;" d="M393.999,309.099L256,446.8c11.7-11.4,11.7-30.601,0-42.299V126.7l10.499-8.701l127.5,127.5
	C411.4,262.899,411.4,291.4,393.999,309.099z"/>
<path style="fill:#636978;" d="M309.101,75.7c5.999,6,5.999,15.3,0,21.301L256,150.099l-74.369,74.105
	c-5.832,5.811-15.257,5.836-21.119,0.056L149.8,213.699c-11.4-11.699-30.601-11.699-42.301,0L245.501,75.7
	c3.3-3.3,6.599-5.7,10.499-7.5C273.1,58.599,294.699,61.3,309.101,75.7z"/>
<path style="fill:#414952;" d="M309.101,97L256,150.099V68.2c17.1-9.6,38.699-6.899,53.101,7.5C315.099,81.7,315.099,91,309.101,97z
	"/>
<g>
</g>
<g>
</g>
<g>
</g>
<g>
</g>
<g>
</g>
<g>
</g>
<g>
</g>
<g>
</g>
<g>
</g>
<g>
</g>
<g>
</g>
<g>
</g>
<g>
</g>
<g>
</g>
<g>
</g>
</svg>
