<?xml version="1.0" encoding="iso-8859-1"?>
<!-- Generator: Adobe Illustrator 19.0.0, SVG Export Plug-In . SVG Version: 6.00 Build 0)  -->
<svg version="1.1" id="Capa_1" xmlns="http://www.w3.org/2000/svg" xmlns:xlink="http://www.w3.org/1999/xlink" x="0px" y="0px"
	 viewBox="0 0 512 512" style="enable-background:new 0 0 512 512;" xml:space="preserve">
<path style="fill:#95E8C8;" d="M467,0H45C20.099,0,0,20.099,0,45v422c0,24.901,20.099,45,45,45h422c24.901,0,45-20.099,45-45V45
	C512,20.099,491.901,0,467,0z"/>
<path style="fill:#06CCAB;" d="M512,45v422c0,24.901-20.099,45-45,45H256V0h211C491.901,0,512,20.099,512,45z"/>
<path style="fill:#017365;" d="M467,30H45c-8.401,0-15,6.599-15,15v422c0,8.401,6.599,15,15,15h422c8.401,0,15-6.599,15-15V45
	C482,36.599,475.401,30,467,30z"/>
<path style="fill:#006357;" d="M482,45v422c0,8.401-6.599,15-15,15H256V30h211C475.401,30,482,36.599,482,45z"/>
<path style="fill:#EDFAFA;" d="M256,172.299C237.7,141.7,204.401,121,166,121h-60c-8.401,0-15,6.599-15,15v240
	c0,8.399,6.599,15,15,15h60c38.401,0,71.7-20.7,90-51.301c9.6-15.601,15-34.2,15-53.699v-60C271,206.499,265.6,187.899,256,172.299z
	 M241,286c0,41.4-33.6,75-75,75h-45V151h45c41.4,0,75,33.6,75,75V286z"/>
<g>
	<path style="fill:#CBF7F7;" d="M361,211c-11.492,0-22.132,3.409-31.263,9.031C327.428,214.724,322.161,211,316,211
		c-8.291,0-15,6.709-15,15c0,6.441,0,153.081,0,150c0,8.291,6.709,15,15,15s15-6.709,15-15V271c0-16.538,13.462-30,30-30
		s30,13.462,30,30v105c0,8.291,6.709,15,15,15s15-6.709,15-15V271C421,237.909,394.091,211,361,211z"/>
	<path style="fill:#CBF7F7;" d="M271,226v60c0,19.499-5.4,38.099-15,53.699v-167.4C265.6,187.899,271,206.499,271,226z"/>
</g>
<g>
</g>
<g>
</g>
<g>
</g>
<g>
</g>
<g>
</g>
<g>
</g>
<g>
</g>
<g>
</g>
<g>
</g>
<g>
</g>
<g>
</g>
<g>
</g>
<g>
</g>
<g>
</g>
<g>
</g>
</svg>
