<?xml version="1.0" encoding="iso-8859-1"?>
<!-- Generator: Adobe Illustrator 19.0.0, SVG Export Plug-In . SVG Version: 6.00 Build 0)  -->
<svg version="1.1" id="Capa_1" xmlns="http://www.w3.org/2000/svg" xmlns:xlink="http://www.w3.org/1999/xlink" x="0px" y="0px"
	 viewBox="0 0 512 512" style="enable-background:new 0 0 512 512;" xml:space="preserve">
<path style="fill:#B6B6FF;" d="M467,0H45C20.099,0,0,20.099,0,45v422c0,24.901,20.099,45,45,45h422c24.901,0,45-20.099,45-45V45
	C512,20.099,491.901,0,467,0z"/>
<path style="fill:#9292FF;" d="M512,45v422c0,24.901-20.099,45-45,45H256V0h211C491.901,0,512,20.099,512,45z"/>
<path style="fill:#1B2868;" d="M467,30H45c-8.401,0-15,6.599-15,15v422c0,8.401,6.599,15,15,15h422c8.401,0,15-6.599,15-15V45
	C482,36.599,475.401,30,467,30z"/>
<path style="fill:#12254C;" d="M482,45v422c0,8.401-6.599,15-15,15H256V30h211C475.401,30,482,36.599,482,45z"/>
<path style="fill:#B6B6FF;" d="M271,301c0,18.3-5.7,35.4-15,49.799c-16.199,24-43.801,40.201-75,40.201c-49.501,0-90-40.501-90-90
	v-90c0-49.501,40.499-90,90-90c31.199,0,58.801,16.199,75,40.199C265.3,175.6,271,192.7,271,211c0,8.399-6.599,15-15,15
	s-15-6.601-15-15c0-33.001-27.001-60-60-60s-60,26.999-60,60v90c0,32.999,27.001,60,60,60s60-27.001,60-60c0-8.401,6.599-15,15-15
	S271,292.599,271,301z"/>
<g>
	<path style="fill:#9292FF;" d="M406,211h-45v-45c0-8.276,6.724-15,15-15h30c8.291,0,15-6.709,15-15s-6.709-15-15-15h-30
		c-24.814,0-45,20.186-45,45v45h-15c-8.291,0-15,6.709-15,15s6.709,15,15,15h15v135c0,8.291,6.709,15,15,15s15-6.709,15-15V241h45
		c8.291,0,15-6.709,15-15S414.291,211,406,211z"/>
	<path style="fill:#9292FF;" d="M271,301c0,18.3-5.7,35.4-15,49.799V286C264.401,286,271,292.599,271,301z"/>
	<path style="fill:#9292FF;" d="M256,226v-64.801C265.3,175.6,271,192.7,271,211C271,219.399,264.401,226,256,226z"/>
</g>
<g>
</g>
<g>
</g>
<g>
</g>
<g>
</g>
<g>
</g>
<g>
</g>
<g>
</g>
<g>
</g>
<g>
</g>
<g>
</g>
<g>
</g>
<g>
</g>
<g>
</g>
<g>
</g>
<g>
</g>
</svg>
