<?xml version="1.0" encoding="iso-8859-1"?>
<!-- Generator: Adobe Illustrator 19.0.0, SVG Export Plug-In . SVG Version: 6.00 Build 0)  -->
<svg version="1.1" id="Capa_1" xmlns="http://www.w3.org/2000/svg" xmlns:xlink="http://www.w3.org/1999/xlink" x="0px" y="0px"
	 viewBox="0 0 512 512" style="enable-background:new 0 0 512 512;" xml:space="preserve">
<path style="fill:#96EBE6;" d="M467,0H45C20.099,0,0,20.099,0,45v422c0,24.901,20.099,45,45,45h422c24.901,0,45-20.099,45-45V45
	C512,20.099,491.901,0,467,0z"/>
<path style="fill:#00C8C8;" d="M512,45v422c0,24.901-20.099,45-45,45H256V0h211C491.901,0,512,20.099,512,45z"/>
<path style="fill:#006F77;" d="M467,30H45c-8.401,0-15,6.599-15,15v422c0,8.401,6.599,15,15,15h422c8.401,0,15-6.599,15-15V45
	C482,36.599,475.401,30,467,30z"/>
<path style="fill:#0F5A64;" d="M482,45v422c0,8.401-6.599,15-15,15H256V30h211C475.401,30,482,36.599,482,45z"/>
<path style="fill:#96EBE6;" d="M166,361c-41.353,0-75-33.647-75-75c0-8.291,6.709-15,15-15s15,6.709,15,15c0,24.814,20.186,45,45,45
	s45-20.186,45-45s-20.186-45-45-45c-41.353,0-75-33.647-75-75s33.647-75,75-75s75,33.647,75,75c0,8.291-6.709,15-15,15
	s-15-6.709-15-15c0-24.814-20.186-45-45-45s-45,20.186-45,45s20.186,45,45,45c41.353,0,75,33.647,75,75S207.353,361,166,361z"/>
<path style="fill:#00C8C8;" d="M406,181c-5.061,0-9.313,2.662-12.028,6.497C383.549,183.375,372.486,181,361,181
	c-49.629,0-90,40.371-90,90s40.371,90,90,90c10.384,0,20.457-1.849,30-5.229V376c0,12.026-4.673,23.32-13.198,31.816
	c-16.963,17.021-46.641,17.021-63.604,0c-5.859-5.859-15.366-5.845-21.226-0.015c-5.859,5.859-5.859,15.352-0.015,21.226
	C307.123,443.192,325.961,451,346,451c20.054,0,38.877-7.808,53.027-21.958C413.192,414.877,421,396.054,421,376V196
	C421,187.709,414.291,181,406,181z M361,331c-33.091,0-60-26.909-60-60s26.909-60,60-60c10.789,0,20.848,3.464,30,8.846v102.308
	C381.848,327.536,371.789,331,361,331z"/>
<g>
</g>
<g>
</g>
<g>
</g>
<g>
</g>
<g>
</g>
<g>
</g>
<g>
</g>
<g>
</g>
<g>
</g>
<g>
</g>
<g>
</g>
<g>
</g>
<g>
</g>
<g>
</g>
<g>
</g>
</svg>
