<?xml version="1.0" encoding="iso-8859-1"?>
<!-- Generator: Adobe Illustrator 19.0.0, SVG Export Plug-In . SVG Version: 6.00 Build 0)  -->
<svg version="1.1" id="Capa_1" xmlns="http://www.w3.org/2000/svg" xmlns:xlink="http://www.w3.org/1999/xlink" x="0px" y="0px"
	 viewBox="0 0 512 512" style="enable-background:new 0 0 512 512;" xml:space="preserve">
<path style="fill:#C94810;" d="M467,0H45C20.099,0,0,20.099,0,45v422c0,24.901,20.099,45,45,45h422c24.901,0,45-20.099,45-45V45
	C512,20.099,491.901,0,467,0z"/>
<path style="fill:#BA3918;" d="M512,45v422c0,24.901-20.099,45-45,45H256V0h211C491.901,0,512,20.099,512,45z"/>
<path style="fill:#6B0F03;" d="M467,30H45c-8.401,0-15,6.599-15,15v422c0,8.401,6.599,15,15,15h422c8.401,0,15-6.599,15-15V45
	C482,36.599,475.401,30,467,30z"/>
<path style="fill:#4D0E06;" d="M482,45v422c0,8.401-6.599,15-15,15H256V30h211C475.401,30,482,36.599,482,45z"/>
<path style="fill:#C94810;" d="M270.099,370.6L256,333.1l-75.901-202.5c-4.499-11.7-23.699-11.7-28.198,0l-90,240
	c-2.701,7.798,1.199,16.5,8.699,19.499c7.8,2.701,16.5-1.199,19.499-8.699l30-80.4h91.802l30,80.4c2.399,5.7,7.798,9.6,14.099,9.6
	c1.8,0,3.6-0.3,5.4-0.901C268.9,387.1,272.8,378.399,270.099,370.6z M131.499,271L166,178.599L200.501,271H131.499z"/>
<g>
	<path style="fill:#BA3918;" d="M361,211c-11.492,0-22.132,3.409-31.263,9.031C327.428,214.724,322.161,211,316,211
		c-8.291,0-15,6.709-15,15c0,6.441,0,153.081,0,150c0,8.291,6.709,15,15,15s15-6.709,15-15V271c0-16.538,13.462-30,30-30
		s30,13.462,30,30v105c0,8.291,6.709,15,15,15s15-6.709,15-15V271C421,237.909,394.091,211,361,211z"/>
	<path style="fill:#BA3918;" d="M261.4,390.099C259.6,390.7,257.8,391,256,391v-57.9l14.099,37.5
		C272.8,378.399,268.9,387.1,261.4,390.099z"/>
</g>
<g>
</g>
<g>
</g>
<g>
</g>
<g>
</g>
<g>
</g>
<g>
</g>
<g>
</g>
<g>
</g>
<g>
</g>
<g>
</g>
<g>
</g>
<g>
</g>
<g>
</g>
<g>
</g>
<g>
</g>
</svg>
