<?xml version="1.0" encoding="iso-8859-1"?>
<!-- Generator: Adobe Illustrator 19.0.0, SVG Export Plug-In . SVG Version: 6.00 Build 0)  -->
<svg version="1.1" id="Capa_1" xmlns="http://www.w3.org/2000/svg" xmlns:xlink="http://www.w3.org/1999/xlink" x="0px" y="0px"
	 viewBox="0 0 512 512" style="enable-background:new 0 0 512 512;" xml:space="preserve">
<g>
	<path style="fill:#BF4CD9;" d="M467,0H45C20.099,0,0,20.099,0,45v422c0,24.901,20.099,45,45,45h422c24.901,0,45-20.099,45-45V45
		C512,20.099,491.901,0,467,0z"/>
	<path style="fill:#BF4CD9;" d="M512,45v422c0,24.901-20.099,45-45,45H256V0h211C491.901,0,512,20.099,512,45z"/>
</g>
<path style="fill:#4B1B7A;" d="M467,30H45c-8.401,0-15,6.599-15,15v422c0,8.401,6.599,15,15,15h422c8.401,0,15-6.599,15-15V45
	C482,36.599,475.401,30,467,30z"/>
<path style="fill:#2C0652;" d="M482,45v422c0,8.401-6.599,15-15,15H256V30h211C475.401,30,482,36.599,482,45z"/>
<g>
	<path style="fill:#BF4CD9;" d="M256,127.301c-9.3-4.2-19.501-6.301-30-6.301h-90c-8.401,0-15,6.599-15,15v240
		c0,8.401,6.599,15,15,15s15-6.599,15-15V271h75c10.499,0,20.7-2.1,30-6.301c26.4-11.4,45-37.798,45-68.699
		S282.4,138.701,256,127.301z M256,229.3c-7.8,7.2-18.3,11.7-30,11.7h-75v-90h75c11.7,0,22.2,4.501,30,11.7
		c9.3,8.099,15,20.099,15,33.3S265.3,221.201,256,229.3z"/>
	<path style="fill:#BF4CD9;" d="M406,211c-16.948,0-32.426,5.865-45,15.383V226c0-8.291-6.709-15-15-15s-15,6.709-15,15v150
		c0,8.291,6.709,15,15,15s15-6.709,15-15v-90c0-24.814,20.186-45,45-45c8.291,0,15-6.709,15-15S414.291,211,406,211z"/>
</g>
<path style="fill:#A934C4;" d="M301,196c0,30.901-18.6,57.299-45,68.699v-35.4c9.3-8.099,15-20.099,15-33.3s-5.7-25.201-15-33.3
	v-35.4C282.4,138.701,301,165.099,301,196z"/>
<g>
</g>
<g>
</g>
<g>
</g>
<g>
</g>
<g>
</g>
<g>
</g>
<g>
</g>
<g>
</g>
<g>
</g>
<g>
</g>
<g>
</g>
<g>
</g>
<g>
</g>
<g>
</g>
<g>
</g>
</svg>
