<?xml version="1.0" encoding="iso-8859-1"?>
<!-- Generator: Adobe Illustrator 19.0.0, SVG Export Plug-In . SVG Version: 6.00 Build 0)  -->
<svg version="1.1" id="Capa_1" xmlns="http://www.w3.org/2000/svg" xmlns:xlink="http://www.w3.org/1999/xlink" x="0px" y="0px"
	 viewBox="0 0 512 512" style="enable-background:new 0 0 512 512;" xml:space="preserve">
<path style="fill:#19CFFC;" d="M467,0H45C20.099,0,0,20.099,0,45v422c0,24.901,20.099,45,45,45h422c24.901,0,45-20.099,45-45V45
	C512,20.099,491.901,0,467,0z"/>
<path style="fill:#1EA1E3;" d="M512,45v422c0,24.901-20.099,45-45,45H256V0h211C491.901,0,512,20.099,512,45z"/>
<path style="fill:#053791;" d="M467,30H45c-8.401,0-15,6.599-15,15v422c0,8.401,6.599,15,15,15h422c8.401,0,15-6.599,15-15V45
	C482,36.599,475.401,30,467,30z"/>
<path style="fill:#1B2868;" d="M482,45v422c0,8.401-6.599,15-15,15H256V30h211C475.401,30,482,36.599,482,45z"/>
<path style="fill:#19CFFC;" d="M256,151.3C242.5,133,220.6,121,196,121h-90c-8.401,0-15,6.599-15,15v240c0,8.401,6.599,15,15,15
	s15-6.599,15-15V271h75c24.6,0,46.199-11.7,60-30c9.3-12.299,15-28.2,15-45S265.6,163.599,256,151.3z M196,241h-75v-90h75
	c24.901,0,45,20.099,45,45S220.901,241,196,241z"/>
<g>
	<path style="fill:#1EA1E3;" d="M361,391c-33.091,0-60-26.909-60-60c0-8.291,6.709-15,15-15s15,6.709,15,15
		c0,16.538,13.462,30,30,30s30-13.462,30-30s-13.462-30-30-30c-33.091,0-60-26.909-60-60s26.909-60,60-60s60,26.909,60,60
		c0,8.291-6.709,15-15,15s-15-6.709-15-15c0-16.538-13.462-30-30-30s-30,13.462-30,30s13.462,30,30,30c33.091,0,60,26.909,60,60
		S394.091,391,361,391z"/>
	<path style="fill:#1EA1E3;" d="M271,196c0,16.8-5.7,32.701-15,45v-89.7C265.6,163.599,271,179.2,271,196z"/>
</g>
<g>
</g>
<g>
</g>
<g>
</g>
<g>
</g>
<g>
</g>
<g>
</g>
<g>
</g>
<g>
</g>
<g>
</g>
<g>
</g>
<g>
</g>
<g>
</g>
<g>
</g>
<g>
</g>
<g>
</g>
</svg>
